<svg width="21" height="21" viewBox="0 0 21 21" fill="none" xmlns="http://www.w3.org/2000/svg">
<path d="M15.75 5.27344V5.25L15.7266 5.27344C15.0938 4.80469 14.3438 4.5 13.5 4.5C12.6562 4.5 11.8828 4.80469 11.25 5.27344V5.25V5.27344C10.3359 5.95312 9.72656 7.03125 9.72656 8.25C9.72656 8.53125 9.75 8.78906 9.79688 9.07031C8.97656 9.1875 7.66406 9.60938 6.72656 11.0156V9C6.72656 7.75781 5.71875 6.75 4.47656 6.75C4.05469 6.75 3.72656 7.10156 3.72656 7.5C3.72656 7.92188 4.05469 8.25 4.47656 8.25C4.875 8.25 5.22656 8.60156 5.22656 9V15C5.22656 15.8438 5.88281 16.5 6.72656 16.5H10.8281C10.9219 16.5 11.0156 16.4766 11.0859 16.4062C11.1562 16.3359 11.2031 16.2422 11.2031 16.1484V15.75C11.2031 15.3516 10.8516 15 10.4531 15H9.72656L12.7266 12.75V16.125C12.7266 16.2422 12.75 16.3359 12.8203 16.4062C12.8906 16.4766 13.0078 16.5 13.1016 16.5H13.8516C13.9453 16.5 14.0391 16.4766 14.1094 16.4062C14.1797 16.3359 14.2266 16.2422 14.2266 16.1484V11.9297C15.9844 11.5781 17.25 10.0312 17.25 8.25C17.25 7.03125 16.6406 5.95312 15.75 5.27344ZM13.5 5.25C14.1094 5.25 14.6953 5.46094 15.2109 5.78906L14.25 6.75H12.75L11.7891 5.8125C12.2812 5.46094 12.8672 5.25 13.5 5.25ZM14.7891 8.25C14.7891 8.46094 14.625 8.625 14.4141 8.625C14.1797 8.625 14.0625 8.46094 14.0625 8.25C14.0625 8.0625 14.2266 7.875 14.4375 7.875C14.5312 7.875 14.625 7.92188 14.6953 7.99219C14.7656 8.0625 14.7891 8.15625 14.7891 8.25ZM12.9141 8.25C12.9141 8.46094 12.75 8.625 12.5391 8.625C12.3047 8.625 12.1875 8.46094 12.1875 8.25C12.1875 8.0625 12.3516 7.875 12.5625 7.875C12.6562 7.875 12.75 7.92188 12.8203 7.99219C12.8906 8.0625 12.9141 8.15625 12.9141 8.25ZM13.5 11.25C11.8359 11.25 10.5 9.91406 10.5 8.27344C10.5 7.52344 10.7812 6.84375 11.25 6.32812V8.25C11.25 9.49219 12.2578 10.5 13.5 10.5C14.7422 10.5 15.75 9.49219 15.75 8.25V6.30469C16.1953 6.82031 16.5 7.5 16.5 8.25C16.4766 9.91406 15.1406 11.25 13.5 11.25ZM6.79688 6.11719L7.73438 6.51562L8.13281 7.45312C8.15625 7.47656 8.17969 7.5 8.22656 7.5C8.27344 7.5 8.32031 7.47656 8.34375 7.45312L8.74219 6.51562L9.65625 6.11719C9.70312 6.09375 9.72656 6.07031 9.72656 6.02344C9.72656 5.97656 9.70312 5.92969 9.65625 5.90625L8.74219 5.50781L8.34375 4.57031C8.32031 4.54688 8.27344 4.5 8.22656 4.5C8.17969 4.5 8.13281 4.54688 8.10938 4.57031L7.73438 5.50781L6.79688 5.90625C6.75 5.92969 6.72656 5.95312 6.72656 6C6.72656 6.04688 6.77344 6.09375 6.79688 6.11719Z" fill="url(#paint0_linear_26_6)"/>
<circle cx="10.5" cy="10.5" r="10" stroke="url(#paint1_linear_26_6)"/>
<defs>
<linearGradient id="paint0_linear_26_6" x1="19.875" y1="3" x2="5.12306" y2="18.2606" gradientUnits="userSpaceOnUse">
<stop stop-color="#CA2C60"/>
<stop offset="1" stop-color="#763B89"/>
</linearGradient>
<linearGradient id="paint1_linear_26_6" x1="21" y1="-6.25849e-07" x2="1.07146e-07" y2="21.5" gradientUnits="userSpaceOnUse">
<stop stop-color="#CA2C60"/>
<stop offset="1" stop-color="#763B89"/>
</linearGradient>
</defs>
</svg>
