<svg width="772" height="435" viewBox="0 0 772 435" fill="none" xmlns="http://www.w3.org/2000/svg">
<g clip-path="url(#clip0_2_2)">
<rect width="772" height="435" fill="white"/>
<line x1="54.5" y1="2.18557e-08" x2="54.5" y2="389" stroke="#3F0A3C"/>
<line x1="54" y1="388.5" x2="772" y2="388.5" stroke="#32032F"/>
<path d="M364.676 416.912V415.818H372.312V416.912H369.111V426H367.878V416.912H364.676ZM374.056 426V418.364H375.23V426H374.056ZM374.653 417.091C374.424 417.091 374.227 417.013 374.061 416.857C373.899 416.701 373.818 416.514 373.818 416.295C373.818 416.077 373.899 415.889 374.061 415.734C374.227 415.578 374.424 415.5 374.653 415.5C374.882 415.5 375.077 415.578 375.24 415.734C375.405 415.889 375.488 416.077 375.488 416.295C375.488 416.514 375.405 416.701 375.24 416.857C375.077 417.013 374.882 417.091 374.653 417.091ZM377.379 426V418.364H378.512V419.557H378.612C378.771 419.149 379.027 418.833 379.382 418.607C379.737 418.379 380.163 418.264 380.66 418.264C381.164 418.264 381.583 418.379 381.918 418.607C382.256 418.833 382.519 419.149 382.708 419.557H382.788C382.983 419.162 383.277 418.849 383.668 418.617C384.059 418.382 384.528 418.264 385.075 418.264C385.757 418.264 386.316 418.478 386.75 418.906C387.184 419.33 387.401 419.991 387.401 420.889V426H386.228V420.889C386.228 420.326 386.074 419.923 385.766 419.681C385.457 419.439 385.094 419.318 384.677 419.318C384.14 419.318 383.724 419.481 383.429 419.805C383.134 420.127 382.987 420.535 382.987 421.028V426H381.793V420.77C381.793 420.336 381.652 419.986 381.371 419.721C381.089 419.452 380.726 419.318 380.282 419.318C379.977 419.318 379.692 419.399 379.427 419.562C379.165 419.724 378.953 419.95 378.79 420.238C378.631 420.523 378.552 420.853 378.552 421.227V426H377.379ZM392.748 426.159C392.012 426.159 391.378 425.997 390.844 425.672C390.314 425.344 389.904 424.886 389.616 424.3C389.331 423.71 389.189 423.024 389.189 422.241C389.189 421.459 389.331 420.77 389.616 420.173C389.904 419.573 390.306 419.106 390.819 418.771C391.336 418.433 391.94 418.264 392.629 418.264C393.027 418.264 393.419 418.33 393.807 418.463C394.195 418.596 394.548 418.811 394.866 419.109C395.184 419.404 395.438 419.795 395.627 420.283C395.816 420.77 395.91 421.37 395.91 422.082V422.58H390.024V421.565H394.717C394.717 421.134 394.631 420.75 394.458 420.412C394.289 420.074 394.047 419.807 393.733 419.612C393.421 419.416 393.053 419.318 392.629 419.318C392.162 419.318 391.757 419.434 391.416 419.666C391.078 419.895 390.818 420.193 390.635 420.561C390.453 420.929 390.362 421.323 390.362 421.744V422.42C390.362 422.997 390.461 423.486 390.66 423.887C390.862 424.285 391.142 424.588 391.5 424.797C391.858 425.002 392.274 425.105 392.748 425.105C393.056 425.105 393.335 425.062 393.583 424.976C393.835 424.886 394.052 424.754 394.235 424.578C394.417 424.399 394.558 424.177 394.657 423.912L395.791 424.23C395.672 424.615 395.471 424.953 395.189 425.244C394.908 425.533 394.56 425.758 394.145 425.92C393.731 426.08 393.265 426.159 392.748 426.159Z" fill="#1E011C"/>
<path d="M14 227.767L3.81818 227.767L3.81818 224.327C3.81818 223.531 3.95407 222.878 4.22585 222.368C4.49432 221.857 4.86387 221.48 5.33452 221.234C5.80516 220.989 6.34044 220.866 6.94034 220.866C7.54025 220.866 8.07221 220.989 8.53622 221.234C9.00024 221.48 9.36482 221.856 9.62997 222.363C9.89181 222.87 10.0227 223.518 10.0227 224.307L10.0227 227.091L8.90909 227.091L8.90909 224.347C8.90909 223.803 8.82954 223.366 8.67045 223.034C8.51136 222.699 8.28598 222.457 7.99432 222.308C7.69934 222.156 7.34801 222.08 6.94034 222.08C6.53267 222.08 6.17637 222.156 5.87145 222.308C5.56652 222.461 5.3312 222.704 5.16548 223.039C4.99645 223.374 4.91193 223.816 4.91193 224.366L4.91193 226.534L14 226.534L14 227.767ZM9.42614 222.974L14 220.469L14 221.901L9.42614 224.366L9.42614 222.974ZM14.1591 215.851C14.1591 216.587 13.9967 217.222 13.6719 217.756C13.3437 218.286 12.8864 218.695 12.2997 218.983C11.7098 219.269 11.0237 219.411 10.2415 219.411C9.45928 219.411 8.76989 219.269 8.17329 218.983C7.57339 218.695 7.10606 218.294 6.77131 217.78C6.43324 217.263 6.2642 216.66 6.2642 215.971C6.2642 215.573 6.33049 215.18 6.46307 214.792C6.59564 214.405 6.81108 214.052 7.10937 213.733C7.40436 213.415 7.79545 213.162 8.28267 212.973C8.76989 212.784 9.36979 212.689 10.0824 212.689L10.5795 212.689L10.5795 218.576L9.56534 218.576L9.56534 213.883C9.13447 213.883 8.75 213.969 8.41193 214.141C8.07386 214.31 7.80705 214.552 7.6115 214.867C7.41596 215.179 7.31818 215.546 7.31818 215.971C7.31818 216.438 7.43418 216.842 7.66619 217.184C7.89489 217.522 8.19318 217.782 8.56108 217.964C8.92898 218.147 9.32339 218.238 9.74432 218.238L10.4205 218.238C10.9972 218.238 11.486 218.138 11.8871 217.939C12.2848 217.737 12.5881 217.457 12.7969 217.099C13.0024 216.741 13.1051 216.325 13.1051 215.851C13.1051 215.543 13.062 215.265 12.9759 215.016C12.8864 214.764 12.7538 214.547 12.5781 214.365C12.3991 214.183 12.1771 214.042 11.9119 213.942L12.2301 212.809C12.6146 212.928 12.9527 213.129 13.2443 213.41C13.5327 213.692 13.758 214.04 13.9205 214.454C14.0795 214.869 14.1591 215.334 14.1591 215.851ZM6.36364 204.893L14 207.717L14 208.91L6.36364 211.734L6.36364 210.461L12.4489 208.353L12.4489 208.273L6.36364 206.165L6.36364 204.893ZM14.1591 200.416C14.1591 201.152 13.9967 201.786 13.6719 202.32C13.3437 202.85 12.8864 203.26 12.2997 203.548C11.7098 203.833 11.0237 203.975 10.2415 203.975C9.45928 203.975 8.76989 203.833 8.17329 203.548C7.57339 203.26 7.10606 202.859 6.77131 202.345C6.43324 201.828 6.2642 201.225 6.2642 200.535C6.2642 200.137 6.33049 199.745 6.46307 199.357C6.59564 198.969 6.81108 198.616 7.10937 198.298C7.40435 197.98 7.79545 197.726 8.28267 197.537C8.76988 197.348 9.36979 197.254 10.0824 197.254L10.5795 197.254L10.5795 203.14L9.56534 203.14L9.56534 198.447C9.13447 198.447 8.75 198.533 8.41193 198.706C8.07386 198.875 7.80705 199.117 7.6115 199.431C7.41595 199.743 7.31818 200.111 7.31818 200.535C7.31818 201.002 7.43418 201.407 7.66619 201.748C7.89489 202.086 8.19318 202.346 8.56108 202.529C8.92898 202.711 9.32339 202.802 9.74432 202.802L10.4205 202.802C10.9972 202.802 11.486 202.703 11.8871 202.504C12.2848 202.302 12.5881 202.022 12.7969 201.664C13.0024 201.306 13.1051 200.89 13.1051 200.416C13.1051 200.108 13.062 199.829 12.9759 199.581C12.8864 199.329 12.7538 199.112 12.5781 198.929C12.3991 198.747 12.1771 198.606 11.9119 198.507L12.2301 197.373C12.6146 197.493 12.9527 197.693 13.2443 197.975C13.5327 198.257 13.758 198.605 13.9205 199.019C14.0795 199.433 14.1591 199.899 14.1591 200.416ZM9.40625 194.296L14 194.296L14 195.469L6.36363 195.469L6.36363 194.336L7.55682 194.336L7.55682 194.236C7.16903 194.057 6.85748 193.785 6.62216 193.421C6.38352 193.056 6.2642 192.586 6.2642 192.009C6.2642 191.492 6.37026 191.039 6.58238 190.652C6.79119 190.264 7.10937 189.962 7.53693 189.747C7.96117 189.531 8.4981 189.424 9.14773 189.424L14 189.424L14 190.597L9.22727 190.597C8.62737 190.597 8.16004 190.753 7.82528 191.064C7.48721 191.376 7.31818 191.803 7.31818 192.347C7.31818 192.721 7.39938 193.056 7.56179 193.351C7.72419 193.643 7.96117 193.873 8.27273 194.042C8.58428 194.211 8.96212 194.296 9.40625 194.296ZM10.8778 182.467L6.36363 182.467L6.36363 181.294L14 181.294L14 182.467L12.7074 182.467L12.7074 182.547C13.0952 182.726 13.425 183.004 13.6967 183.382C13.9652 183.76 14.0994 184.237 14.0994 184.814C14.0994 185.291 13.995 185.715 13.7862 186.086C13.5741 186.458 13.2559 186.749 12.8317 186.961C12.4041 187.174 11.8655 187.28 11.2159 187.28L6.36363 187.28L6.36363 186.106L11.1364 186.106C11.6932 186.106 12.1373 185.951 12.4687 185.639C12.8002 185.324 12.9659 184.923 12.9659 184.436C12.9659 184.144 12.8913 183.848 12.7422 183.546C12.593 183.241 12.3643 182.986 12.0561 182.78C11.7479 182.572 11.3551 182.467 10.8778 182.467ZM14.1591 175.943C14.1591 176.679 13.9967 177.314 13.6719 177.847C13.3437 178.378 12.8864 178.787 12.2997 179.075C11.7098 179.36 11.0237 179.503 10.2415 179.503C9.45928 179.503 8.76988 179.36 8.17329 179.075C7.57339 178.787 7.10606 178.386 6.7713 177.872C6.43324 177.355 6.2642 176.752 6.2642 176.062C6.2642 175.665 6.33049 175.272 6.46307 174.884C6.59564 174.496 6.81108 174.143 7.10937 173.825C7.40435 173.507 7.79545 173.254 8.28267 173.065C8.76988 172.876 9.36979 172.781 10.0824 172.781L10.5795 172.781L10.5795 178.668L9.56534 178.668L9.56534 173.974C9.13447 173.974 8.75 174.061 8.41193 174.233C8.07386 174.402 7.80705 174.644 7.6115 174.959C7.41595 175.27 7.31818 175.638 7.31818 176.062C7.31818 176.53 7.43418 176.934 7.66619 177.276C7.89488 177.614 8.19318 177.874 8.56108 178.056C8.92897 178.238 9.32339 178.33 9.74432 178.33L10.4205 178.33C10.9972 178.33 11.486 178.23 11.8871 178.031C12.2848 177.829 12.5881 177.549 12.7969 177.191C13.0024 176.833 13.1051 176.417 13.1051 175.943C13.1051 175.635 13.062 175.357 12.9758 175.108C12.8864 174.856 12.7538 174.639 12.5781 174.457C12.3991 174.274 12.1771 174.134 11.9119 174.034L12.2301 172.901C12.6146 173.02 12.9526 173.22 13.2443 173.502C13.5327 173.784 13.758 174.132 13.9205 174.546C14.0795 174.96 14.1591 175.426 14.1591 175.943Z" fill="#1E011C"/>
<path d="M738.15 9.54391L726.605 9.32678L732.189 19.4336L738.15 9.54391ZM56.0534 387.573L730.756 14.7718L729.788 13.0213L55.0861 385.823L56.0534 387.573Z" fill="#C82C61"/>
</g>
<defs>
<clipPath id="clip0_2_2">
<rect width="772" height="435" fill="white"/>
</clipPath>
</defs>
</svg>
