<svg width="772" height="435" viewBox="0 0 772 435" fill="none" xmlns="http://www.w3.org/2000/svg">
<g clip-path="url(#clip0_8_28)">
<rect width="772" height="435" fill="white"/>
<line x1="54.5" y1="2.18557e-08" x2="54.5" y2="389" stroke="#3F0A3C"/>
<line x1="54" y1="388.5" x2="772" y2="388.5" stroke="#32032F"/>
<path d="M364.676 416.912V415.818H372.312V416.912H369.111V426H367.878V416.912H364.676ZM374.056 426V418.364H375.23V426H374.056ZM374.653 417.091C374.424 417.091 374.227 417.013 374.061 416.857C373.899 416.701 373.818 416.514 373.818 416.295C373.818 416.077 373.899 415.889 374.061 415.734C374.227 415.578 374.424 415.5 374.653 415.5C374.882 415.5 375.077 415.578 375.24 415.734C375.405 415.889 375.488 416.077 375.488 416.295C375.488 416.514 375.405 416.701 375.24 416.857C375.077 417.013 374.882 417.091 374.653 417.091ZM377.379 426V418.364H378.512V419.557H378.612C378.771 419.149 379.027 418.833 379.382 418.607C379.737 418.379 380.163 418.264 380.66 418.264C381.164 418.264 381.583 418.379 381.918 418.607C382.256 418.833 382.519 419.149 382.708 419.557H382.788C382.983 419.162 383.277 418.849 383.668 418.617C384.059 418.382 384.528 418.264 385.075 418.264C385.757 418.264 386.316 418.478 386.75 418.906C387.184 419.33 387.401 419.991 387.401 420.889V426H386.228V420.889C386.228 420.326 386.074 419.923 385.766 419.681C385.457 419.439 385.094 419.318 384.677 419.318C384.14 419.318 383.724 419.481 383.429 419.805C383.134 420.127 382.987 420.535 382.987 421.028V426H381.793V420.77C381.793 420.336 381.652 419.986 381.371 419.721C381.089 419.452 380.726 419.318 380.282 419.318C379.977 419.318 379.692 419.399 379.427 419.562C379.165 419.724 378.953 419.95 378.79 420.238C378.631 420.523 378.552 420.853 378.552 421.227V426H377.379ZM392.748 426.159C392.012 426.159 391.378 425.997 390.844 425.672C390.314 425.344 389.904 424.886 389.616 424.3C389.331 423.71 389.189 423.024 389.189 422.241C389.189 421.459 389.331 420.77 389.616 420.173C389.904 419.573 390.306 419.106 390.819 418.771C391.336 418.433 391.94 418.264 392.629 418.264C393.027 418.264 393.419 418.33 393.807 418.463C394.195 418.596 394.548 418.811 394.866 419.109C395.184 419.404 395.438 419.795 395.627 420.283C395.816 420.77 395.91 421.37 395.91 422.082V422.58H390.024V421.565H394.717C394.717 421.134 394.631 420.75 394.458 420.412C394.289 420.074 394.047 419.807 393.733 419.612C393.421 419.416 393.053 419.318 392.629 419.318C392.162 419.318 391.757 419.434 391.416 419.666C391.078 419.895 390.818 420.193 390.635 420.561C390.453 420.929 390.362 421.323 390.362 421.744V422.42C390.362 422.997 390.461 423.486 390.66 423.887C390.862 424.285 391.142 424.588 391.5 424.797C391.858 425.002 392.274 425.105 392.748 425.105C393.056 425.105 393.335 425.062 393.583 424.976C393.835 424.886 394.052 424.754 394.235 424.578C394.417 424.399 394.558 424.177 394.657 423.912L395.791 424.23C395.672 424.615 395.471 424.953 395.189 425.244C394.908 425.533 394.56 425.758 394.145 425.92C393.731 426.08 393.265 426.159 392.748 426.159Z" fill="#1E011C"/>
<path d="M14 227.767L3.81818 227.767L3.81818 224.327C3.81818 223.528 3.96236 222.875 4.25071 222.368C4.53575 221.857 4.92187 221.48 5.40909 221.234C5.89631 220.989 6.43987 220.866 7.03977 220.866C7.63968 220.866 8.1849 220.989 8.67543 221.234C9.16596 221.476 9.55705 221.851 9.84872 222.358C10.1371 222.865 10.2812 223.515 10.2812 224.307L10.2812 226.773L9.1875 226.773L9.1875 224.347C9.1875 223.8 9.09304 223.361 8.90412 223.029C8.7152 222.698 8.45999 222.457 8.13849 222.308C7.81368 222.156 7.44744 222.08 7.03977 222.08C6.6321 222.08 6.26752 222.156 5.94602 222.308C5.62453 222.457 5.37263 222.699 5.19034 223.034C5.00473 223.369 4.91193 223.813 4.91193 224.366L4.91193 226.534L14 226.534L14 227.767ZM14 219.039L6.36364 219.039L6.36364 217.906L7.51704 217.906L7.51704 217.826C7.1392 217.687 6.83262 217.435 6.5973 217.071C6.36198 216.706 6.24432 216.295 6.24432 215.838C6.24432 215.752 6.24597 215.644 6.24929 215.515C6.2526 215.385 6.25758 215.288 6.2642 215.221L7.45739 215.221C7.44744 215.261 7.43253 215.352 7.41264 215.495C7.38944 215.634 7.37784 215.781 7.37784 215.937C7.37784 216.308 7.45573 216.64 7.61151 216.931C7.76397 217.22 7.97609 217.449 8.24787 217.618C8.51633 217.783 8.82292 217.866 9.16761 217.866L14 217.866L14 219.039ZM14.1591 210.961C14.1591 211.65 13.995 212.255 13.6669 212.775C13.3388 213.292 12.8797 213.697 12.2898 213.988C11.6998 214.277 11.0104 214.421 10.2216 214.421C9.42614 214.421 8.73177 214.277 8.13849 213.988C7.54522 213.697 7.08452 213.292 6.75639 212.775C6.42827 212.255 6.2642 211.65 6.2642 210.961C6.2642 210.271 6.42827 209.668 6.75639 209.151C7.08452 208.631 7.54522 208.226 8.13849 207.938C8.73177 207.646 9.42614 207.5 10.2216 207.5C11.0104 207.5 11.6998 207.646 12.2898 207.938C12.8797 208.226 13.3388 208.631 13.6669 209.151C13.995 209.668 14.1591 210.271 14.1591 210.961ZM13.1051 210.961C13.1051 210.437 12.9709 210.006 12.7024 209.668C12.4339 209.33 12.081 209.08 11.6435 208.917C11.206 208.755 10.732 208.674 10.2216 208.674C9.71117 208.674 9.23556 208.755 8.79474 208.917C8.35393 209.08 7.99763 209.33 7.72585 209.668C7.45407 210.006 7.31818 210.437 7.31818 210.961C7.31818 211.484 7.45407 211.915 7.72585 212.253C7.99763 212.591 8.35393 212.842 8.79474 213.004C9.23556 213.166 9.71117 213.248 10.2216 213.248C10.732 213.248 11.206 213.166 11.6435 213.004C12.081 212.842 12.4339 212.591 12.7024 212.253C12.9709 211.915 13.1051 211.484 13.1051 210.961ZM6.36363 202.309L7.35795 202.309L7.35795 206.425L6.36364 206.425L6.36363 202.309ZM14 205.192L5.30966 205.192C4.87216 205.192 4.50757 205.09 4.21591 204.884C3.92424 204.679 3.70549 204.412 3.55966 204.084C3.41382 203.756 3.34091 203.409 3.34091 203.045C3.34091 202.756 3.36411 202.521 3.41051 202.339C3.45691 202.156 3.5 202.02 3.53977 201.931L4.55398 202.269C4.53409 202.329 4.50923 202.412 4.4794 202.518C4.44957 202.62 4.43466 202.756 4.43466 202.925C4.43466 203.313 4.53243 203.593 4.72798 203.765C4.92353 203.934 5.21023 204.019 5.58807 204.019L14 204.019L14 205.192ZM14 200.664L6.36363 200.664L6.36363 199.491L14 199.491L14 200.664ZM5.09091 200.068C5.09091 200.297 5.01302 200.494 4.85724 200.659C4.70147 200.822 4.5142 200.903 4.29545 200.903C4.0767 200.903 3.88944 200.822 3.73366 200.659C3.57789 200.494 3.5 200.297 3.5 200.068C3.5 199.839 3.57789 199.644 3.73366 199.481C3.88944 199.315 4.0767 199.233 4.29545 199.233C4.5142 199.233 4.70147 199.315 4.85724 199.481C5.01302 199.644 5.09091 199.839 5.09091 200.068ZM6.36363 194.021L7.35795 194.021L7.35795 197.979L6.36363 197.979L6.36363 194.021ZM4.53409 196.825L4.53409 195.652L11.8125 195.652C12.1439 195.652 12.3925 195.604 12.5582 195.508C12.7206 195.408 12.83 195.282 12.8864 195.13C12.9394 194.974 12.9659 194.81 12.9659 194.638C12.9659 194.508 12.9593 194.402 12.946 194.319C12.9294 194.237 12.9162 194.17 12.9062 194.121L13.9602 193.882C13.9901 193.961 14.0199 194.073 14.0497 194.215C14.0829 194.358 14.0994 194.538 14.0994 194.757C14.0994 195.088 14.0282 195.413 13.8857 195.731C13.7431 196.046 13.526 196.308 13.2344 196.517C12.9427 196.722 12.5748 196.825 12.1307 196.825L4.53409 196.825Z" fill="#1E011C"/>
<path opacity="0.5" d="M738.15 9.99997L726.605 9.78283L732.189 19.8896L738.15 9.99997ZM56.0534 388.03L730.756 15.2279L729.788 13.4773L55.0861 386.279L56.0534 388.03Z" fill="#C82C61"/>
<path opacity="0.5" d="M570.652 81.311L565.879 72.3173L569.023 70.6486C569.65 70.3161 570.224 70.1502 570.746 70.1508C571.266 70.1486 571.722 70.2762 572.114 70.5335C572.504 70.788 572.816 71.1348 573.049 71.5739C573.254 71.9604 573.355 72.316 573.351 72.6408C573.35 72.9641 573.277 73.2579 573.132 73.5224C572.99 73.7853 572.809 74.0202 572.588 74.2272L572.635 74.3151C572.92 74.1866 573.248 74.1364 573.619 74.1644C573.99 74.1925 574.357 74.3207 574.718 74.5492C575.079 74.7776 575.386 75.129 575.638 75.6033C575.877 76.0541 575.99 76.514 575.976 76.9829C575.962 77.4517 575.79 77.9089 575.46 78.3543C575.13 78.7997 574.61 79.2104 573.902 79.5864L570.652 81.311ZM571.228 79.7669L573.389 78.6203C574.1 78.2427 574.532 77.8371 574.685 77.4034C574.839 76.9652 574.811 76.5485 574.601 76.1533C574.44 75.8488 574.213 75.609 573.921 75.4337C573.628 75.2555 573.296 75.1649 572.927 75.162C572.556 75.1562 572.175 75.2574 571.782 75.4656L569.569 76.6402L571.228 79.7669ZM569.066 75.6916L571.086 74.6195C571.414 74.4455 571.675 74.2242 571.87 73.9555C572.068 73.6853 572.183 73.392 572.214 73.0754C572.247 72.7573 572.18 72.4401 572.013 72.1239C571.803 71.7287 571.487 71.4665 571.066 71.3374C570.643 71.2053 570.133 71.2977 569.536 71.6147L567.481 72.7054L569.066 75.6916ZM578.554 77.1171L574.975 70.3718L576.011 69.8218L579.591 76.5671L578.554 77.1171ZM574.905 68.9679C574.703 69.0751 574.492 69.0988 574.273 69.0389C574.056 68.9774 573.897 68.85 573.794 68.6568C573.692 68.4636 573.676 68.2601 573.746 68.0464C573.82 67.8311 573.957 67.6699 574.159 67.5626C574.361 67.4554 574.571 67.4326 574.787 67.494C575.006 67.554 575.167 67.6805 575.27 67.8737C575.372 68.067 575.387 68.2712 575.314 68.4865C575.243 68.7002 575.107 68.8607 574.905 68.9679ZM577.752 66.0159L582.525 75.0097L581.489 75.5597L576.716 66.566L577.752 66.0159ZM580.687 64.4585L585.46 73.4523L584.424 74.0023L579.651 65.0085L580.687 64.4585ZM589.427 71.5495C589 71.7764 588.569 71.9017 588.135 71.9256C587.7 71.9465 587.298 71.8577 586.93 71.6591C586.56 71.4575 586.259 71.1371 586.026 70.698C585.821 70.3115 585.731 69.9579 585.756 69.637C585.779 69.3132 585.881 69.0149 586.063 68.7422C586.245 68.4694 586.471 68.2178 586.743 67.9873C587.016 67.7523 587.298 67.5312 587.59 67.324C587.972 67.0538 588.283 66.8379 588.524 66.6764C588.766 66.5104 588.928 66.3626 589.009 66.2331C589.093 66.1021 589.091 65.9531 589.003 65.7863L588.984 65.7511C588.754 65.3178 588.457 65.0441 588.092 64.9299C587.731 64.8141 587.311 64.8829 586.834 65.1361C586.339 65.3987 586.009 65.7129 585.843 66.0787C585.677 66.4445 585.602 66.7807 585.618 67.0872L584.448 67.2579C584.406 66.7548 584.471 66.3114 584.643 65.9277C584.815 65.5395 585.052 65.2075 585.352 64.9319C585.654 64.6517 585.974 64.4216 586.314 64.2413C586.531 64.1264 586.794 64.0206 587.103 63.9242C587.413 63.8232 587.742 63.7819 588.089 63.8002C588.44 63.8169 588.787 63.9382 589.132 64.164C589.477 64.3899 589.792 64.7708 590.076 65.3065L592.435 69.7507L591.398 70.3007L590.914 69.3873L590.861 69.4152C590.868 69.5989 590.834 69.8177 590.759 70.0716C590.684 70.3255 590.541 70.5832 590.331 70.8448C590.121 71.1064 589.819 71.3413 589.427 71.5495ZM589.091 70.5346C589.501 70.3171 589.804 70.0533 589.999 69.7431C590.198 69.4313 590.301 69.1101 590.31 68.7792C590.321 68.4468 590.252 68.1401 590.103 67.859L589.599 66.9105C589.583 66.9865 589.512 67.0861 589.386 67.2092C589.262 67.3279 589.111 67.4546 588.935 67.5894C588.76 67.7196 588.588 67.8446 588.419 67.9644C588.252 68.0797 588.116 68.1741 588.013 68.2478C587.762 68.4259 587.54 68.6166 587.348 68.82C587.157 69.0188 587.031 69.2339 586.97 69.4652C586.91 69.692 586.95 69.9372 587.09 70.2007C587.281 70.5608 587.559 70.7623 587.923 70.8054C588.289 70.844 588.678 70.7537 589.091 70.5346ZM594.467 68.6722L589.694 59.6785L590.73 59.1284L592.492 62.4484L592.58 62.4018C592.594 62.2443 592.62 62.039 592.659 61.7861C592.698 61.5286 592.807 61.2605 592.986 60.9819C593.166 60.6988 593.475 60.4407 593.915 60.2077C594.483 59.9062 595.059 59.7825 595.643 59.8366C596.227 59.8906 596.778 60.1137 597.298 60.5059C597.817 60.898 598.265 61.4483 598.641 62.1568C599.02 62.8712 599.227 63.5549 599.263 64.2079C599.296 64.8579 599.174 65.4406 598.896 65.956C598.616 66.4683 598.195 66.8737 597.633 67.172C597.2 67.4019 596.815 67.5143 596.478 67.5092C596.14 67.5011 595.852 67.4421 595.613 67.3322C595.373 67.2194 595.183 67.1218 595.041 67.0392L594.918 67.1044L595.468 68.1408L594.467 68.6722ZM593.696 64.7589C593.966 65.2683 594.279 65.678 594.635 65.9882C594.99 66.2954 595.369 66.4826 595.772 66.55C596.174 66.6143 596.583 66.5362 596.999 66.3156C597.432 66.0856 597.733 65.7796 597.901 65.3974C598.071 65.0107 598.126 64.5839 598.066 64.1168C598.007 63.6453 597.85 63.1694 597.596 62.6893C597.344 62.215 597.044 61.8264 596.695 61.5235C596.348 61.2161 595.97 61.0289 595.559 60.9617C595.149 60.8901 594.725 60.9708 594.286 61.2039C593.864 61.4276 593.567 61.7225 593.393 62.0885C593.218 62.4515 593.158 62.8622 593.214 63.3205C593.268 63.7758 593.429 64.2553 593.696 64.7589ZM598.27 55.1268L603.044 64.1206L602.007 64.6706L597.234 55.6768L598.27 55.1268ZM607.844 61.7528C607.195 62.0977 606.558 62.2518 605.934 62.215C605.312 62.1738 604.736 61.9617 604.206 61.5786C603.678 61.1911 603.23 60.6519 602.864 59.961C602.497 59.2701 602.3 58.5943 602.272 57.9337C602.245 57.2686 602.38 56.6678 602.677 56.1313C602.976 55.5903 603.429 55.1582 604.038 54.8351C604.389 54.6486 604.767 54.523 605.172 54.4584C605.577 54.3937 605.99 54.4185 606.41 54.5328C606.83 54.6442 607.237 54.8708 607.632 55.2126C608.028 55.5544 608.392 56.0401 608.726 56.6695L608.959 57.1087L603.76 59.8681L603.284 58.9722L607.43 56.7721C607.228 56.3915 606.972 56.0923 606.661 55.8745C606.353 55.6551 606.014 55.5329 605.645 55.5078C605.278 55.4811 604.907 55.5672 604.532 55.766C604.119 55.9851 603.817 56.2771 603.624 56.6421C603.432 57.0026 603.342 57.3881 603.354 57.7985C603.365 58.2089 603.47 58.6 603.667 58.9718L603.984 59.5691C604.254 60.0785 604.571 60.4637 604.935 60.7247C605.3 60.9813 605.69 61.1179 606.104 61.1345C606.516 61.1482 606.932 61.044 607.35 60.8218C607.623 60.6773 607.848 60.5087 608.028 60.3161C608.208 60.1189 608.338 59.9001 608.416 59.6594C608.493 59.4159 608.514 59.1537 608.477 58.8729L609.628 58.6226C609.703 59.0181 609.684 59.4107 609.572 59.8004C609.458 60.1872 609.256 60.5494 608.967 60.8871C608.675 61.2218 608.301 61.5104 607.844 61.7528ZM614.5 52.8397L616.654 56.8975L615.617 57.4475L610.844 48.4537L611.881 47.9037L613.633 51.2061L613.721 51.1595C613.694 50.7272 613.785 50.3247 613.992 49.952C614.201 49.5747 614.57 49.2455 615.1 48.9643C615.56 48.7204 616.011 48.5989 616.455 48.6C616.896 48.5982 617.313 48.7356 617.703 49.0123C618.096 49.2845 618.445 49.7104 618.753 50.2901L621.028 54.5762L619.991 55.1262L617.754 50.9104C617.47 50.3746 617.111 50.0342 616.677 49.889C616.245 49.7394 615.785 49.7943 615.296 50.0538C614.956 50.234 614.69 50.4673 614.496 50.7537C614.306 51.0386 614.206 51.3597 614.197 51.7173C614.191 52.0733 614.292 52.4474 614.5 52.8397ZM625.739 52.2562C625.13 52.5794 624.518 52.718 623.905 52.6721C623.294 52.6246 622.722 52.4087 622.188 52.0243C621.657 51.6384 621.206 51.097 620.836 50.4002C620.463 49.6976 620.265 49.0167 620.242 48.3574C620.221 47.6967 620.363 47.1002 620.665 46.568C620.971 46.0342 621.429 45.6057 622.038 45.2825C622.647 44.9594 623.256 44.8215 623.867 44.869C624.48 44.9149 625.053 45.1322 625.586 45.5211C626.122 45.9084 626.576 46.4534 626.949 47.1561C627.319 47.8528 627.513 48.5301 627.532 49.188C627.554 49.8443 627.412 50.4393 627.106 50.9731C626.803 51.5053 626.348 51.933 625.739 52.2562ZM625.245 51.3252C625.707 51.0797 626.025 50.7592 626.198 50.3635C626.37 49.9679 626.426 49.5388 626.364 49.0762C626.303 48.6136 626.152 48.1569 625.913 47.7061C625.674 47.2552 625.379 46.8732 625.029 46.5599C624.679 46.2467 624.291 46.0493 623.865 45.9677C623.439 45.8861 622.994 45.968 622.532 46.2135C622.069 46.459 621.752 46.781 621.581 47.1796C621.41 47.5781 621.356 48.0102 621.419 48.4757C621.482 48.9412 621.633 49.3994 621.873 49.8502C622.112 50.3011 622.406 50.6817 622.754 50.992C623.103 51.3023 623.489 51.4968 623.914 51.5754C624.338 51.6541 624.782 51.5707 625.245 51.3252ZM633.09 44.6401L630.974 40.6527L632.01 40.1026L635.59 46.8479L634.553 47.398L633.948 46.2562L633.877 46.2935C633.901 46.7199 633.81 47.1417 633.603 47.5589C633.395 47.9732 633.037 48.3155 632.527 48.5858C632.106 48.8096 631.682 48.9162 631.256 48.9058C630.829 48.8924 630.422 48.7481 630.036 48.4728C629.648 48.1946 629.302 47.7686 628.997 47.1947L626.723 42.9087L627.759 42.3587L629.996 46.5745C630.258 47.0663 630.603 47.3856 631.034 47.5323C631.467 47.6775 631.899 47.6358 632.33 47.4074C632.587 47.2707 632.814 47.0658 633.011 46.7927C633.21 46.518 633.329 46.1963 633.366 45.8277C633.406 45.4576 633.314 45.0617 633.09 44.6401ZM637.488 45.8405L633.908 39.0952L634.91 38.5639L635.45 39.5827L635.521 39.5454C635.466 39.1464 635.545 38.7575 635.757 38.3787C635.969 37.9999 636.276 37.7034 636.68 37.4889C636.757 37.4485 636.853 37.3995 636.968 37.3418C637.084 37.2842 637.173 37.2427 637.234 37.2175L637.794 38.2715C637.754 38.2813 637.666 38.3109 637.531 38.3601C637.397 38.4049 637.262 38.4638 637.124 38.5368C636.796 38.7108 636.54 38.935 636.355 39.2093C636.172 39.4792 636.069 39.7737 636.048 40.0931C636.027 40.4079 636.098 40.7175 636.259 41.022L638.524 45.2905L637.488 45.8405ZM645.567 41.5528L641.988 34.8075L642.989 34.2761L643.548 35.3301L643.636 35.2835C643.585 34.8488 643.664 34.4488 643.871 34.0835C644.078 33.7152 644.4 33.4146 644.839 33.1815C645.284 32.9453 645.708 32.8498 646.111 32.8949C646.515 32.9355 646.897 33.0915 647.255 33.3631L647.325 33.3258C647.313 32.8857 647.425 32.4716 647.662 32.0833C647.897 31.6921 648.256 31.3683 648.739 31.1119C649.342 30.7919 649.936 30.7189 650.519 30.893C651.102 31.0642 651.604 31.5465 652.025 32.3399L654.421 36.8544L653.384 37.4044L650.988 32.8899C650.724 32.3922 650.399 32.1088 650.014 32.0396C649.628 31.9703 649.251 32.0336 648.882 32.2294C648.407 32.4811 648.116 32.8195 648.008 33.2447C647.898 33.667 647.959 34.0962 648.19 34.5324L650.521 38.9239L649.467 39.4833L647.015 34.8634C646.812 34.4799 646.523 34.2371 646.15 34.1349C645.775 34.0299 645.392 34.0814 645 34.2896C644.73 34.4326 644.517 34.6379 644.358 34.9057C644.203 35.1719 644.122 35.4704 644.113 35.8012C644.106 36.1276 644.191 36.4562 644.366 36.787L646.604 41.0028L645.567 41.5528ZM659.13 34.5349C658.521 34.8581 657.91 34.9967 657.297 34.9508C656.686 34.9034 656.114 34.6875 655.58 34.3031C655.048 33.9171 654.598 33.3758 654.228 32.679C653.855 31.9763 653.657 31.2954 653.634 30.6362C653.613 29.9754 653.754 29.3789 654.057 28.8467C654.363 28.3129 654.82 27.8845 655.429 27.5613C656.038 27.2381 656.648 27.1002 657.259 27.1477C657.872 27.1936 658.445 27.411 658.978 27.7999C659.514 28.1872 659.968 28.7322 660.341 29.4348C660.711 30.1316 660.905 30.8089 660.924 31.4667C660.946 32.123 660.804 32.7181 660.498 33.2518C660.195 33.7841 659.739 34.2118 659.13 34.5349ZM658.636 33.6039C659.099 33.3585 659.416 33.0379 659.589 32.6423C659.762 32.2467 659.818 31.8176 659.756 31.355C659.694 30.8924 659.544 30.4357 659.305 29.9848C659.065 29.534 658.771 29.1519 658.42 28.8387C658.07 28.5254 657.682 28.328 657.256 28.2464C656.83 28.1648 656.386 28.2468 655.923 28.4923C655.461 28.7378 655.144 29.0598 654.973 29.4583C654.802 29.8569 654.747 30.2889 654.811 30.7544C654.874 31.2199 655.025 31.6781 655.264 32.129C655.504 32.5798 655.798 32.9604 656.146 33.2707C656.495 33.581 656.881 33.7755 657.306 33.8542C657.73 33.9328 658.174 33.8494 658.636 33.6039ZM666.316 30.7215C665.754 31.0198 665.182 31.1412 664.601 31.0856C664.018 31.0271 663.467 30.8018 662.948 30.4096C662.427 30.0145 661.977 29.4598 661.597 28.7454C661.221 28.0369 661.017 27.3577 660.983 26.7076C660.95 26.0575 661.074 25.4755 661.357 24.9616C661.639 24.4476 662.064 24.0399 662.632 23.7385C663.072 23.5055 663.457 23.3945 663.79 23.4057C664.123 23.4125 664.407 23.4723 664.639 23.5853C664.873 23.6938 665.059 23.7864 665.198 23.8631L665.285 23.8165L663.523 20.4965L664.56 19.9465L669.333 28.9402L668.332 29.4716L667.782 28.4352L667.659 28.5005C667.648 28.6638 667.622 28.8765 667.581 29.1384C667.538 29.3975 667.425 29.6693 667.242 29.954C667.058 30.2357 666.749 30.4916 666.316 30.7215ZM665.962 29.7159C666.378 29.4953 666.672 29.2005 666.844 28.8316C667.014 28.4598 667.071 28.041 667.016 27.5753C666.958 27.1067 666.794 26.6177 666.524 26.1083C666.257 25.6047 665.95 25.203 665.603 24.903C665.255 24.6001 664.881 24.4194 664.482 24.3608C664.082 24.2994 663.671 24.3805 663.249 24.6043C662.81 24.8373 662.504 25.1442 662.331 25.525C662.159 25.9014 662.102 26.3201 662.159 26.7813C662.218 27.2381 662.373 27.7036 662.625 28.1779C662.879 28.658 663.184 29.0554 663.539 29.37C663.895 29.6801 664.279 29.8739 664.691 29.9514C665.105 30.0244 665.529 29.9459 665.962 29.7159ZM674.278 26.4961C673.628 26.8411 672.991 26.9951 672.367 26.9584C671.745 26.9171 671.169 26.705 670.639 26.322C670.111 25.9345 669.663 25.3953 669.297 24.7044C668.93 24.0134 668.733 23.3377 668.705 22.6771C668.678 22.012 668.814 21.4112 669.11 20.8747C669.409 20.3337 669.862 19.9016 670.471 19.5784C670.823 19.392 671.201 19.2664 671.605 19.2017C672.01 19.137 672.423 19.1619 672.844 19.2762C673.263 19.3876 673.67 19.6142 674.065 19.956C674.461 20.2978 674.825 20.7834 675.159 21.4129L675.393 21.852L670.193 24.6114L669.718 23.7156L673.863 21.5155C673.661 21.1349 673.405 20.8357 673.094 20.6179C672.786 20.3985 672.448 20.2762 672.078 20.2511C671.711 20.2244 671.34 20.3105 670.965 20.5094C670.552 20.7285 670.25 21.0205 670.057 21.3855C669.866 21.746 669.776 22.1314 669.787 22.5418C669.798 22.9523 669.903 23.3434 670.1 23.7152L670.417 24.3124C670.687 24.8218 671.004 25.2071 671.368 25.4681C671.733 25.7246 672.123 25.8612 672.537 25.8779C672.949 25.8916 673.365 25.7873 673.783 25.5651C674.056 25.4206 674.281 25.2521 674.461 25.0594C674.641 24.8623 674.771 24.6434 674.85 24.4028C674.927 24.1593 674.947 23.8971 674.91 23.6162L676.061 23.3659C676.136 23.7615 676.117 24.1541 676.005 24.5438C675.891 24.9306 675.69 25.2928 675.4 25.6304C675.108 25.9652 674.734 26.2538 674.278 26.4961ZM674.836 14.4929L679.609 23.4866L678.573 24.0367L673.799 15.0429L674.836 14.4929Z" fill="#C82C61"/>
<path d="M273.5 44.5L274.09 43.6926L273.226 43.0609L272.654 43.9664L273.5 44.5ZM730.5 378.5L725.833 367.938L719.02 377.261L730.5 378.5ZM56.3457 390.534L274.346 45.0336L272.654 43.9664L54.6543 389.466L56.3457 390.534ZM272.91 45.3074L722.644 373.997L723.824 372.382L274.09 43.6926L272.91 45.3074Z" fill="#3F0A3C"/>
<path d="M602.791 264.917L608.925 256.79L613.798 260.468L613.139 261.341L609.25 258.406L607.178 261.152L610.702 263.812L610.043 264.685L606.519 262.025L603.775 265.66L602.791 264.917ZM609.223 269.771L613.823 263.676L614.76 264.383L610.159 270.478L609.223 269.771ZM615.066 263.02C614.884 262.882 614.773 262.701 614.735 262.477C614.699 262.255 614.747 262.056 614.879 261.882C615.01 261.707 615.188 261.607 615.411 261.58C615.638 261.556 615.842 261.612 616.024 261.75C616.207 261.888 616.316 262.068 616.352 262.29C616.39 262.514 616.344 262.713 616.212 262.888C616.08 263.063 615.901 263.162 615.675 263.187C615.452 263.213 615.249 263.158 615.066 263.02ZM617.173 266.205L616.753 269.799L620.094 268.409L621.173 269.224L616.905 270.786L616.573 275.319L615.494 274.504L615.818 271.037L612.573 272.3L611.494 271.485L615.73 269.899L616.094 265.39L617.173 266.205ZM620.118 278.194C619.531 277.751 619.122 277.239 618.892 276.658C618.666 276.076 618.615 275.465 618.738 274.823C618.866 274.18 619.166 273.547 619.637 272.922C620.108 272.298 620.637 271.834 621.224 271.529C621.815 271.224 622.417 271.093 623.029 271.135C623.645 271.177 624.228 271.405 624.779 271.82C625.096 272.06 625.37 272.35 625.599 272.689C625.829 273.028 625.981 273.413 626.055 273.843C626.132 274.27 626.098 274.735 625.956 275.238C625.813 275.74 625.527 276.276 625.098 276.845L624.798 277.242L620.1 273.695L620.711 272.886L624.457 275.713C624.716 275.369 624.879 275.011 624.945 274.637C625.014 274.265 624.982 273.906 624.848 273.561C624.717 273.217 624.482 272.917 624.144 272.662C623.771 272.38 623.378 272.229 622.966 272.209C622.558 272.188 622.171 272.269 621.804 272.453C621.437 272.637 621.126 272.896 620.873 273.232L620.465 273.772C620.118 274.232 619.903 274.683 619.82 275.122C619.742 275.562 619.783 275.972 619.943 276.355C620.104 276.734 620.375 277.067 620.753 277.353C620.999 277.538 621.247 277.672 621.497 277.753C621.752 277.833 622.005 277.858 622.257 277.827C622.51 277.794 622.756 277.702 622.995 277.55L623.709 278.487C623.382 278.722 623.018 278.871 622.617 278.934C622.219 278.995 621.805 278.965 621.377 278.845C620.95 278.722 620.531 278.505 620.118 278.194ZM626.368 282.911C625.86 282.528 625.508 282.061 625.313 281.511C625.12 280.958 625.091 280.363 625.227 279.727C625.365 279.087 625.677 278.445 626.165 277.8C626.648 277.159 627.177 276.687 627.752 276.381C628.327 276.076 628.907 275.943 629.492 275.982C630.077 276.021 630.627 276.234 631.14 276.621C631.537 276.921 631.8 277.224 631.93 277.53C632.065 277.835 632.131 278.117 632.127 278.375C632.127 278.633 632.122 278.841 632.111 278.999L632.19 279.059L634.455 276.059L635.391 276.766L629.257 284.892L628.353 284.21L629.059 283.273L628.948 283.189C628.796 283.248 628.592 283.315 628.337 283.388C628.084 283.459 627.79 283.472 627.455 283.426C627.122 283.378 626.759 283.206 626.368 282.911ZM627.13 282.166C627.505 282.449 627.897 282.591 628.304 282.591C628.713 282.588 629.116 282.463 629.515 282.216C629.915 281.966 630.289 281.61 630.637 281.15C630.98 280.695 631.215 280.247 631.34 279.806C631.467 279.362 631.473 278.947 631.358 278.561C631.244 278.172 630.997 277.834 630.616 277.547C630.219 277.247 629.812 277.099 629.393 277.103C628.98 277.107 628.576 277.232 628.182 277.479C627.793 277.725 627.437 278.062 627.113 278.49C626.786 278.924 626.554 279.368 626.419 279.823C626.288 280.276 626.275 280.707 626.379 281.113C626.488 281.519 626.738 281.87 627.13 282.166ZM641.56 284.611L640.961 285.404L637.675 282.924L638.274 282.131L641.56 284.611ZM634.658 288.969L639.893 282.032C640.157 281.683 640.458 281.454 640.798 281.345C641.138 281.236 641.483 281.222 641.832 281.303C642.182 281.385 642.503 281.535 642.794 281.755C643.024 281.928 643.198 282.089 643.315 282.236C643.433 282.382 643.515 282.499 643.563 282.584L642.682 283.19C642.646 283.138 642.595 283.069 642.528 282.981C642.464 282.895 642.365 282.801 642.23 282.7C641.92 282.466 641.638 282.375 641.383 282.428C641.13 282.482 640.89 282.66 640.662 282.961L635.594 289.676L634.658 288.969ZM640.481 293.563C639.893 293.119 639.485 292.607 639.254 292.027C639.029 291.445 638.978 290.834 639.101 290.192C639.229 289.549 639.528 288.916 640 288.291C640.471 287.667 641 287.203 641.587 286.898C642.178 286.593 642.78 286.462 643.392 286.504C644.008 286.546 644.591 286.774 645.142 287.189C645.459 287.429 645.733 287.718 645.962 288.058C646.192 288.397 646.344 288.782 646.418 289.212C646.494 289.639 646.461 290.104 646.318 290.606C646.176 291.109 645.89 291.645 645.46 292.214L645.161 292.61L640.463 289.064L641.074 288.255L644.82 291.082C645.079 290.738 645.242 290.379 645.308 290.006C645.377 289.634 645.344 289.275 645.211 288.93C645.08 288.586 644.845 288.286 644.507 288.031C644.134 287.749 643.741 287.598 643.329 287.578C642.921 287.556 642.534 287.638 642.167 287.822C641.799 288.005 641.489 288.265 641.236 288.601L640.828 289.141C640.481 289.601 640.266 290.051 640.183 290.491C640.105 290.931 640.145 291.341 640.305 291.724C640.467 292.103 640.737 292.436 641.116 292.721C641.362 292.907 641.61 293.04 641.86 293.121C642.115 293.202 642.368 293.227 642.62 293.196C642.873 293.163 643.119 293.071 643.358 292.919L644.071 293.856C643.744 294.091 643.381 294.24 642.98 294.303C642.582 294.364 642.168 294.334 641.74 294.214C641.313 294.091 640.893 293.874 640.481 293.563ZM646.985 298.472C646.397 298.028 645.989 297.516 645.758 296.936C645.533 296.354 645.482 295.743 645.605 295.101C645.733 294.458 646.032 293.825 646.503 293.2C646.975 292.576 647.504 292.111 648.091 291.807C648.682 291.502 649.284 291.37 649.896 291.413C650.512 291.454 651.095 291.683 651.645 292.098C651.963 292.338 652.236 292.627 652.466 292.967C652.696 293.306 652.848 293.691 652.922 294.121C652.998 294.548 652.965 295.013 652.822 295.515C652.68 296.018 652.394 296.554 651.964 297.122L651.665 297.519L646.966 293.973L647.577 293.164L651.323 295.991C651.583 295.647 651.746 295.288 651.812 294.915C651.881 294.543 651.848 294.184 651.715 293.838C651.584 293.495 651.349 293.195 651.01 292.939C650.637 292.658 650.245 292.507 649.833 292.486C649.425 292.465 649.038 292.547 648.67 292.73C648.303 292.914 647.993 293.174 647.739 293.51L647.332 294.05C646.985 294.51 646.77 294.96 646.687 295.4C646.608 295.839 646.649 296.25 646.809 296.633C646.971 297.012 647.241 297.345 647.62 297.63C647.866 297.816 648.114 297.949 648.364 298.03C648.619 298.111 648.872 298.136 649.123 298.105C649.377 298.072 649.623 297.98 649.862 297.828L650.575 298.765C650.248 299 649.885 299.149 649.484 299.212C649.085 299.272 648.672 299.243 648.243 299.123C647.817 299 647.397 298.783 646.985 298.472ZM655.857 305.193C655.471 304.902 655.176 304.564 654.971 304.181C654.768 303.796 654.678 303.394 654.703 302.976C654.729 302.556 654.892 302.148 655.192 301.751C655.455 301.402 655.738 301.171 656.039 301.057C656.342 300.942 656.656 300.909 656.98 300.958C657.304 301.007 657.628 301.106 657.951 301.255C658.28 301.403 658.599 301.566 658.911 301.742C659.317 301.974 659.644 302.165 659.892 302.315C660.145 302.464 660.347 302.548 660.499 302.567C660.653 302.588 660.787 302.524 660.901 302.373L660.925 302.341C661.221 301.949 661.343 301.564 661.293 301.186C661.245 300.809 661.005 300.458 660.574 300.133C660.127 299.795 659.702 299.628 659.301 299.633C658.899 299.637 658.563 299.711 658.292 299.855L657.643 298.867C658.081 298.616 658.51 298.488 658.93 298.481C659.355 298.474 659.756 298.548 660.133 298.703C660.514 298.858 660.858 299.052 661.165 299.283C661.361 299.431 661.568 299.624 661.786 299.864C662.008 300.102 662.185 300.383 662.315 300.706C662.448 301.03 662.485 301.397 662.426 301.805C662.367 302.213 662.155 302.659 661.79 303.143L658.759 307.159L657.822 306.452L658.445 305.627L658.398 305.591C658.234 305.675 658.022 305.737 657.76 305.776C657.498 305.815 657.204 305.794 656.878 305.714C656.552 305.635 656.212 305.461 655.857 305.193ZM656.635 304.46C657.006 304.739 657.373 304.902 657.736 304.948C658.103 304.997 658.438 304.955 658.741 304.822C659.047 304.692 659.296 304.5 659.488 304.246L660.134 303.389C660.059 303.406 659.939 303.384 659.774 303.322C659.614 303.259 659.435 303.176 659.239 303.074C659.047 302.97 658.861 302.867 658.681 302.765C658.505 302.661 658.362 302.579 658.252 302.516C657.985 302.364 657.718 302.244 657.453 302.155C657.192 302.067 656.943 302.043 656.708 302.086C656.477 302.127 656.272 302.267 656.092 302.505C655.847 302.831 655.781 303.168 655.896 303.516C656.016 303.864 656.262 304.178 656.635 304.46ZM660.468 308.449L665.068 302.354L665.973 303.037L665.278 303.957L665.342 304.005C665.681 303.788 666.066 303.695 666.499 303.726C666.932 303.758 667.331 303.912 667.696 304.187C667.765 304.239 667.85 304.306 667.951 304.386C668.052 304.467 668.127 304.529 668.176 304.575L667.457 305.527C667.431 305.495 667.368 305.428 667.266 305.327C667.169 305.224 667.058 305.126 666.934 305.032C666.637 304.809 666.326 304.671 665.999 304.62C665.677 304.568 665.367 304.599 665.068 304.714C664.774 304.829 664.523 305.024 664.316 305.299L661.405 309.156L660.468 308.449ZM664.626 311.587L669.226 305.492L670.131 306.175L669.436 307.095L669.5 307.143C669.838 306.926 670.224 306.833 670.657 306.864C671.09 306.896 671.488 307.05 671.854 307.325C671.922 307.377 672.007 307.444 672.109 307.524C672.21 307.605 672.285 307.667 672.334 307.713L671.615 308.665C671.589 308.633 671.525 308.566 671.424 308.465C671.326 308.362 671.216 308.264 671.091 308.17C670.795 307.947 670.484 307.809 670.157 307.758C669.835 307.706 669.525 307.737 669.226 307.852C668.932 307.967 668.681 308.162 668.473 308.437L665.562 312.294L664.626 311.587ZM670.469 316.222C670.083 315.93 669.787 315.593 669.582 315.21C669.379 314.824 669.29 314.422 669.315 314.005C669.341 313.585 669.504 313.176 669.804 312.779C670.067 312.43 670.35 312.199 670.651 312.086C670.954 311.97 671.268 311.937 671.592 311.986C671.916 312.036 672.24 312.135 672.563 312.284C672.892 312.432 673.211 312.594 673.522 312.771C673.929 313.003 674.256 313.194 674.504 313.343C674.757 313.493 674.959 313.577 675.111 313.596C675.265 313.617 675.399 313.552 675.513 313.401L675.537 313.369C675.833 312.978 675.955 312.593 675.905 312.214C675.857 311.837 675.617 311.486 675.186 311.161C674.739 310.824 674.314 310.657 673.913 310.661C673.511 310.665 673.175 310.739 672.904 310.884L672.254 309.895C672.693 309.645 673.122 309.516 673.542 309.509C673.967 309.502 674.368 309.576 674.745 309.732C675.126 309.887 675.47 310.08 675.777 310.312C675.973 310.459 676.18 310.653 676.398 310.892C676.62 311.131 676.797 311.411 676.927 311.734C677.06 312.059 677.097 312.425 677.038 312.833C676.979 313.241 676.767 313.687 676.402 314.171L673.371 318.187L672.434 317.48L673.057 316.655L673.01 316.619C672.846 316.704 672.634 316.765 672.372 316.804C672.11 316.843 671.816 316.823 671.49 316.743C671.164 316.663 670.824 316.489 670.469 316.222ZM671.247 315.488C671.617 315.768 671.985 315.931 672.348 315.977C672.715 316.025 673.05 315.983 673.353 315.851C673.659 315.72 673.908 315.528 674.099 315.274L674.746 314.417C674.671 314.435 674.551 314.412 674.386 314.35C674.225 314.288 674.047 314.205 673.85 314.102C673.659 313.999 673.473 313.896 673.293 313.793C673.117 313.69 672.974 313.607 672.864 313.544C672.596 313.392 672.33 313.272 672.064 313.184C671.804 313.095 671.555 313.072 671.32 313.114C671.089 313.156 670.884 313.296 670.704 313.534C670.459 313.859 670.393 314.196 670.508 314.544C670.628 314.892 670.874 315.207 671.247 315.488ZM678.784 316.518L676.017 320.184L675.08 319.477L679.68 313.382L680.585 314.065L679.866 315.017L679.946 315.077C680.322 314.876 680.727 314.791 681.16 314.823C681.594 314.852 682.042 315.04 682.502 315.387C682.915 315.699 683.212 316.056 683.394 316.459C683.578 316.859 683.627 317.295 683.541 317.766C683.457 318.234 683.22 318.728 682.829 319.246L679.905 323.119L678.969 322.413L681.844 318.603C682.205 318.124 682.363 317.657 682.316 317.202C682.271 316.745 682.031 316.352 681.597 316.025C681.298 315.799 680.982 315.663 680.649 315.614C680.318 315.568 679.992 315.619 679.669 315.766C679.347 315.912 679.051 316.163 678.784 316.518ZM682.256 328.681C681.804 328.339 681.459 327.987 681.221 327.625C680.982 327.266 680.824 326.911 680.749 326.559C680.675 326.212 680.654 325.885 680.686 325.577L681.828 325.617C681.829 325.792 681.84 326 681.862 326.24C681.881 326.484 681.964 326.743 682.109 327.019C682.255 327.299 682.511 327.578 682.879 327.855C683.371 328.227 683.867 328.414 684.367 328.417C684.867 328.421 685.308 328.169 685.691 327.661L686.626 326.423L686.547 326.363C686.394 326.422 686.192 326.486 685.941 326.554C685.695 326.621 685.407 326.63 685.075 326.579C684.749 326.528 684.387 326.352 683.99 326.053C683.498 325.681 683.144 325.232 682.928 324.703C682.715 324.177 682.662 323.606 682.77 322.99C682.881 322.375 683.176 321.751 683.655 321.116C684.126 320.492 684.646 320.031 685.215 319.734C685.786 319.434 686.363 319.305 686.947 319.346C687.532 319.385 688.081 319.598 688.594 319.986C688.991 320.285 689.256 320.589 689.389 320.897C689.527 321.204 689.595 321.488 689.593 321.748C689.596 322.008 689.592 322.217 689.581 322.375L689.677 322.447L690.407 321.479L691.312 322.161L686.58 328.431C686.185 328.955 685.744 329.291 685.259 329.439C684.773 329.592 684.273 329.595 683.758 329.447C683.243 329.303 682.743 329.048 682.256 328.681ZM684.752 325.307C685.128 325.591 685.51 325.745 685.899 325.768C686.288 325.792 686.672 325.693 687.05 325.472C687.429 325.252 687.788 324.916 688.127 324.466C688.459 324.027 688.685 323.59 688.806 323.154C688.928 322.718 688.931 322.307 688.815 321.921C688.7 321.535 688.451 321.198 688.07 320.911C687.674 320.611 687.267 320.462 686.851 320.463C686.437 320.467 686.036 320.588 685.649 320.827C685.263 321.067 684.915 321.394 684.604 321.807C684.284 322.23 684.068 322.654 683.954 323.08C683.846 323.504 683.852 323.908 683.975 324.291C684.101 324.673 684.36 325.012 684.752 325.307ZM690.886 331.606C690.298 331.163 689.89 330.651 689.659 330.07C689.434 329.489 689.383 328.877 689.506 328.235C689.634 327.593 689.933 326.959 690.405 326.335C690.876 325.71 691.405 325.246 691.992 324.942C692.583 324.636 693.185 324.505 693.797 324.547C694.413 324.589 694.996 324.817 695.547 325.233C695.864 325.472 696.138 325.762 696.367 326.101C696.597 326.441 696.749 326.825 696.823 327.255C696.899 327.682 696.866 328.147 696.723 328.65C696.581 329.153 696.295 329.688 695.865 330.257L695.566 330.654L690.868 327.108L691.479 326.298L695.225 329.126C695.484 328.782 695.647 328.423 695.713 328.049C695.782 327.678 695.749 327.319 695.616 326.973C695.485 326.629 695.25 326.33 694.912 326.074C694.539 325.793 694.146 325.641 693.734 325.621C693.326 325.6 692.939 325.681 692.572 325.865C692.205 326.049 691.894 326.309 691.641 326.645L691.233 327.184C690.886 327.645 690.671 328.095 690.588 328.535C690.51 328.974 690.55 329.385 690.71 329.767C690.872 330.147 691.142 330.479 691.521 330.765C691.767 330.951 692.015 331.084 692.265 331.165C692.52 331.245 692.773 331.27 693.025 331.24C693.278 331.207 693.524 331.114 693.763 330.963L694.476 331.899C694.15 332.134 693.786 332.283 693.385 332.347C692.987 332.407 692.573 332.377 692.145 332.257C691.718 332.135 691.298 331.918 690.886 331.606ZM694.93 334.459L699.53 328.364L700.435 329.047L699.716 329.999L699.796 330.059C700.168 329.83 700.564 329.732 700.983 329.765C701.404 329.797 701.812 329.962 702.209 330.261C702.611 330.565 702.877 330.909 703.007 331.293C703.141 331.677 703.16 332.088 703.065 332.527L703.129 332.575C703.523 332.378 703.945 332.305 704.397 332.355C704.851 332.403 705.296 332.592 705.733 332.921C706.278 333.332 706.595 333.839 706.684 334.442C706.775 335.042 706.55 335.701 706.009 336.418L702.93 340.497L701.993 339.79L705.072 335.711C705.412 335.261 705.531 334.847 705.431 334.468C705.331 334.089 705.114 333.774 704.781 333.523C704.352 333.199 703.922 333.078 703.491 333.16C703.062 333.239 702.699 333.475 702.401 333.869L699.406 337.838L698.454 337.119L701.604 332.944C701.866 332.598 701.964 332.234 701.899 331.852C701.836 331.468 701.627 331.143 701.273 330.875C701.029 330.691 700.753 330.584 700.443 330.554C700.137 330.526 699.831 330.578 699.528 330.711C699.229 330.842 698.967 331.058 698.742 331.357L695.866 335.166L694.93 334.459ZM707.102 343.845C706.515 343.402 706.106 342.89 705.876 342.309C705.65 341.728 705.599 341.116 705.722 340.474C705.85 339.832 706.149 339.198 706.621 338.574C707.092 337.95 707.621 337.485 708.208 337.181C708.799 336.876 709.401 336.744 710.013 336.786C710.629 336.828 711.212 337.057 711.763 337.472C712.08 337.712 712.354 338.001 712.583 338.34C712.813 338.68 712.965 339.064 713.039 339.494C713.115 339.921 713.082 340.386 712.94 340.889C712.797 341.392 712.511 341.927 712.081 342.496L711.782 342.893L707.084 339.347L707.695 338.537L711.441 341.365C711.7 341.021 711.863 340.662 711.929 340.288C711.998 339.917 711.965 339.558 711.832 339.212C711.701 338.868 711.466 338.569 711.128 338.313C710.755 338.032 710.362 337.881 709.95 337.86C709.542 337.839 709.155 337.92 708.788 338.104C708.421 338.288 708.11 338.548 707.857 338.884L707.449 339.424C707.102 339.884 706.887 340.334 706.804 340.774C706.726 341.213 706.767 341.624 706.926 342.006C707.088 342.386 707.358 342.719 707.737 343.004C707.983 343.19 708.231 343.323 708.481 343.404C708.736 343.484 708.989 343.509 709.241 343.479C709.494 343.446 709.74 343.353 709.979 343.202L710.692 344.139C710.366 344.374 710.002 344.523 709.601 344.586C709.203 344.646 708.789 344.616 708.361 344.496C707.934 344.374 707.515 344.157 707.102 343.845ZM714.85 343.739L712.083 347.405L711.146 346.698L715.746 340.603L716.651 341.286L715.932 342.238L716.012 342.298C716.388 342.097 716.793 342.012 717.226 342.043C717.66 342.073 718.108 342.261 718.568 342.608C718.981 342.92 719.278 343.277 719.46 343.68C719.643 344.08 719.693 344.516 719.607 344.987C719.523 345.455 719.286 345.949 718.894 346.467L715.971 350.34L715.035 349.633L717.91 345.824C718.271 345.345 718.429 344.878 718.382 344.423C718.337 343.966 718.097 343.573 717.663 343.246C717.364 343.02 717.048 342.883 716.715 342.835C716.384 342.789 716.058 342.84 715.735 342.987C715.413 343.133 715.117 343.384 714.85 343.739ZM724.934 347.537L724.335 348.331L721.176 345.947L721.775 345.153L724.934 347.537ZM723.798 344.388L724.734 345.095L720.35 350.904C720.15 351.169 720.039 351.396 720.015 351.586C719.997 351.776 720.032 351.939 720.119 352.076C720.212 352.212 720.327 352.332 720.464 352.436C720.567 352.514 720.656 352.572 720.73 352.612C720.806 352.648 720.867 352.678 720.913 352.7L720.468 353.685C720.387 353.661 720.28 353.617 720.149 353.555C720.015 353.496 719.861 353.4 719.686 353.269C719.422 353.069 719.205 352.816 719.037 352.511C718.872 352.208 718.794 351.877 718.803 351.518C718.814 351.161 718.954 350.806 719.221 350.451L723.798 344.388Z" fill="#32032F"/>
<path d="M287.233 312.818H288.705L292.165 321.27H292.284L295.744 312.818H297.216V323H296.062V315.264H295.963L292.781 323H291.668L288.486 315.264H288.386V323H287.233V312.818ZM299.529 323V315.364H300.702V323H299.529ZM300.126 314.091C299.897 314.091 299.7 314.013 299.534 313.857C299.372 313.701 299.29 313.514 299.29 313.295C299.29 313.077 299.372 312.889 299.534 312.734C299.7 312.578 299.897 312.5 300.126 312.5C300.354 312.5 300.55 312.578 300.712 312.734C300.878 312.889 300.961 313.077 300.961 313.295C300.961 313.514 300.878 313.701 300.712 313.857C300.55 314.013 300.354 314.091 300.126 314.091ZM304.025 318.406V323H302.851V315.364H303.985V316.557H304.084C304.263 316.169 304.535 315.857 304.9 315.622C305.264 315.384 305.735 315.264 306.311 315.264C306.828 315.264 307.281 315.37 307.669 315.582C308.056 315.791 308.358 316.109 308.574 316.537C308.789 316.961 308.897 317.498 308.897 318.148V323H307.723V318.227C307.723 317.627 307.568 317.16 307.256 316.825C306.944 316.487 306.517 316.318 305.973 316.318C305.599 316.318 305.264 316.399 304.969 316.562C304.677 316.724 304.447 316.961 304.278 317.273C304.109 317.584 304.025 317.962 304.025 318.406ZM311.041 323V315.364H312.214V323H311.041ZM311.637 314.091C311.409 314.091 311.211 314.013 311.046 313.857C310.883 313.701 310.802 313.514 310.802 313.295C310.802 313.077 310.883 312.889 311.046 312.734C311.211 312.578 311.409 312.5 311.637 312.5C311.866 312.5 312.061 312.578 312.224 312.734C312.39 312.889 312.472 313.077 312.472 313.295C312.472 313.514 312.39 313.701 312.224 313.857C312.061 314.013 311.866 314.091 311.637 314.091ZM314.363 323V315.364H315.496V316.557H315.596C315.755 316.149 316.012 315.833 316.366 315.607C316.721 315.379 317.147 315.264 317.644 315.264C318.148 315.264 318.567 315.379 318.902 315.607C319.24 315.833 319.504 316.149 319.692 316.557H319.772C319.968 316.162 320.261 315.849 320.652 315.617C321.043 315.382 321.512 315.264 322.059 315.264C322.742 315.264 323.3 315.478 323.734 315.906C324.169 316.33 324.386 316.991 324.386 317.889V323H323.212V317.889C323.212 317.326 323.058 316.923 322.75 316.681C322.442 316.439 322.079 316.318 321.661 316.318C321.124 316.318 320.708 316.481 320.413 316.805C320.118 317.127 319.971 317.535 319.971 318.028V323H318.778V317.77C318.778 317.336 318.637 316.986 318.355 316.721C318.073 316.452 317.71 316.318 317.266 316.318C316.961 316.318 316.676 316.399 316.411 316.562C316.149 316.724 315.937 316.95 315.775 317.238C315.616 317.523 315.536 317.853 315.536 318.227V323H314.363ZM331.343 319.878V315.364H332.517V323H331.343V321.707H331.264C331.085 322.095 330.806 322.425 330.429 322.697C330.051 322.965 329.574 323.099 328.997 323.099C328.52 323.099 328.095 322.995 327.724 322.786C327.353 322.574 327.061 322.256 326.849 321.832C326.637 321.404 326.531 320.866 326.531 320.216V315.364H327.704V320.136C327.704 320.693 327.86 321.137 328.172 321.469C328.486 321.8 328.887 321.966 329.375 321.966C329.666 321.966 329.963 321.891 330.265 321.742C330.569 321.593 330.825 321.364 331.03 321.056C331.239 320.748 331.343 320.355 331.343 319.878ZM334.666 323V315.364H335.799V316.557H335.899C336.058 316.149 336.315 315.833 336.669 315.607C337.024 315.379 337.45 315.264 337.947 315.264C338.451 315.264 338.87 315.379 339.205 315.607C339.543 315.833 339.806 316.149 339.995 316.557H340.075C340.27 316.162 340.564 315.849 340.955 315.617C341.346 315.382 341.815 315.264 342.362 315.264C343.044 315.264 343.603 315.478 344.037 315.906C344.471 316.33 344.688 316.991 344.688 317.889V323H343.515V317.889C343.515 317.326 343.361 316.923 343.053 316.681C342.744 316.439 342.382 316.318 341.964 316.318C341.427 316.318 341.011 316.481 340.716 316.805C340.421 317.127 340.274 317.535 340.274 318.028V323H339.08V317.77C339.08 317.336 338.94 316.986 338.658 316.721C338.376 316.452 338.013 316.318 337.569 316.318C337.264 316.318 336.979 316.399 336.714 316.562C336.452 316.724 336.24 316.95 336.078 317.238C335.919 317.523 335.839 317.853 335.839 318.227V323H334.666ZM354.092 315.364V316.358H350.135V315.364H354.092ZM351.288 313.534H352.461V320.812C352.461 321.144 352.51 321.393 352.606 321.558C352.705 321.721 352.831 321.83 352.983 321.886C353.139 321.939 353.303 321.966 353.476 321.966C353.605 321.966 353.711 321.959 353.794 321.946C353.877 321.929 353.943 321.916 353.993 321.906L354.231 322.96C354.152 322.99 354.041 323.02 353.898 323.05C353.756 323.083 353.575 323.099 353.356 323.099C353.025 323.099 352.7 323.028 352.382 322.886C352.067 322.743 351.805 322.526 351.596 322.234C351.391 321.943 351.288 321.575 351.288 321.131V313.534ZM355.857 323V315.364H357.03V323H355.857ZM356.454 314.091C356.225 314.091 356.028 314.013 355.862 313.857C355.7 313.701 355.618 313.514 355.618 313.295C355.618 313.077 355.7 312.889 355.862 312.734C356.028 312.578 356.225 312.5 356.454 312.5C356.682 312.5 356.878 312.578 357.04 312.734C357.206 312.889 357.289 313.077 357.289 313.295C357.289 313.514 357.206 313.701 357.04 313.857C356.878 314.013 356.682 314.091 356.454 314.091ZM359.179 323V315.364H360.313V316.557H360.412C360.571 316.149 360.828 315.833 361.183 315.607C361.538 315.379 361.963 315.264 362.461 315.264C362.964 315.264 363.384 315.379 363.718 315.607C364.056 315.833 364.32 316.149 364.509 316.557H364.588C364.784 316.162 365.077 315.849 365.468 315.617C365.859 315.382 366.328 315.264 366.875 315.264C367.558 315.264 368.117 315.478 368.551 315.906C368.985 316.33 369.202 316.991 369.202 317.889V323H368.029V317.889C368.029 317.326 367.875 316.923 367.566 316.681C367.258 316.439 366.895 316.318 366.478 316.318C365.941 316.318 365.525 316.481 365.23 316.805C364.935 317.127 364.787 317.535 364.787 318.028V323H363.594V317.77C363.594 317.336 363.453 316.986 363.172 316.721C362.89 316.452 362.527 316.318 362.083 316.318C361.778 316.318 361.493 316.399 361.228 316.562C360.966 316.724 360.754 316.95 360.591 317.238C360.432 317.523 360.353 317.853 360.353 318.227V323H359.179ZM374.549 323.159C373.813 323.159 373.179 322.997 372.645 322.672C372.115 322.344 371.705 321.886 371.417 321.3C371.132 320.71 370.989 320.024 370.989 319.241C370.989 318.459 371.132 317.77 371.417 317.173C371.705 316.573 372.106 316.106 372.62 315.771C373.137 315.433 373.74 315.264 374.43 315.264C374.827 315.264 375.22 315.33 375.608 315.463C375.996 315.596 376.349 315.811 376.667 316.109C376.985 316.404 377.239 316.795 377.428 317.283C377.616 317.77 377.711 318.37 377.711 319.082V319.58H371.825V318.565H376.518C376.518 318.134 376.432 317.75 376.259 317.412C376.09 317.074 375.848 316.807 375.533 316.612C375.222 316.416 374.854 316.318 374.43 316.318C373.962 316.318 373.558 316.434 373.217 316.666C372.879 316.895 372.618 317.193 372.436 317.561C372.254 317.929 372.163 318.323 372.163 318.744V319.42C372.163 319.997 372.262 320.486 372.461 320.887C372.663 321.285 372.943 321.588 373.301 321.797C373.659 322.002 374.075 322.105 374.549 322.105C374.857 322.105 375.136 322.062 375.384 321.976C375.636 321.886 375.853 321.754 376.036 321.578C376.218 321.399 376.359 321.177 376.458 320.912L377.592 321.23C377.472 321.615 377.272 321.953 376.99 322.244C376.708 322.533 376.36 322.758 375.946 322.92C375.532 323.08 375.066 323.159 374.549 323.159ZM384.607 318.406V323H383.433V315.364H384.567V316.557H384.666C384.845 316.169 385.117 315.857 385.482 315.622C385.846 315.384 386.317 315.264 386.893 315.264C387.411 315.264 387.863 315.37 388.251 315.582C388.638 315.791 388.94 316.109 389.156 316.537C389.371 316.961 389.479 317.498 389.479 318.148V323H388.305V318.227C388.305 317.627 388.15 317.16 387.838 316.825C387.527 316.487 387.099 316.318 386.555 316.318C386.181 316.318 385.846 316.399 385.551 316.562C385.259 316.724 385.029 316.961 384.86 317.273C384.691 317.584 384.607 317.962 384.607 318.406ZM394.824 323.159C394.089 323.159 393.454 322.997 392.92 322.672C392.39 322.344 391.981 321.886 391.692 321.3C391.407 320.71 391.265 320.024 391.265 319.241C391.265 318.459 391.407 317.77 391.692 317.173C391.981 316.573 392.382 316.106 392.895 315.771C393.412 315.433 394.016 315.264 394.705 315.264C395.103 315.264 395.496 315.33 395.883 315.463C396.271 315.596 396.624 315.811 396.942 316.109C397.26 316.404 397.514 316.795 397.703 317.283C397.892 317.77 397.986 318.37 397.986 319.082V319.58H392.1V318.565H396.793C396.793 318.134 396.707 317.75 396.535 317.412C396.366 317.074 396.124 316.807 395.809 316.612C395.497 316.416 395.129 316.318 394.705 316.318C394.238 316.318 393.833 316.434 393.492 316.666C393.154 316.895 392.894 317.193 392.711 317.561C392.529 317.929 392.438 318.323 392.438 318.744V319.42C392.438 319.997 392.537 320.486 392.736 320.887C392.939 321.285 393.219 321.588 393.577 321.797C393.934 322.002 394.35 322.105 394.824 322.105C395.133 322.105 395.411 322.062 395.66 321.976C395.912 321.886 396.129 321.754 396.311 321.578C396.493 321.399 396.634 321.177 396.733 320.912L397.867 321.23C397.748 321.615 397.547 321.953 397.265 322.244C396.984 322.533 396.636 322.758 396.221 322.92C395.807 323.08 395.341 323.159 394.824 323.159ZM402.973 323.159C402.237 323.159 401.602 322.997 401.069 322.672C400.538 322.344 400.129 321.886 399.841 321.3C399.556 320.71 399.413 320.024 399.413 319.241C399.413 318.459 399.556 317.77 399.841 317.173C400.129 316.573 400.53 316.106 401.044 315.771C401.561 315.433 402.164 315.264 402.854 315.264C403.251 315.264 403.644 315.33 404.032 315.463C404.42 315.596 404.773 315.811 405.091 316.109C405.409 316.404 405.662 316.795 405.851 317.283C406.04 317.77 406.135 318.37 406.135 319.082V319.58H400.248V318.565H404.942C404.942 318.134 404.855 317.75 404.683 317.412C404.514 317.074 404.272 316.807 403.957 316.612C403.646 316.416 403.278 316.318 402.854 316.318C402.386 316.318 401.982 316.434 401.64 316.666C401.302 316.895 401.042 317.193 400.86 317.561C400.678 317.929 400.586 318.323 400.586 318.744V319.42C400.586 319.997 400.686 320.486 400.885 320.887C401.087 321.285 401.367 321.588 401.725 321.797C402.083 322.002 402.499 322.105 402.973 322.105C403.281 322.105 403.559 322.062 403.808 321.976C404.06 321.886 404.277 321.754 404.459 321.578C404.642 321.399 404.782 321.177 404.882 320.912L406.015 321.23C405.896 321.615 405.696 321.953 405.414 322.244C405.132 322.533 404.784 322.758 404.37 322.92C403.956 323.08 403.49 323.159 402.973 323.159ZM410.803 323.159C410.167 323.159 409.605 322.998 409.118 322.677C408.631 322.352 408.249 321.895 407.974 321.305C407.699 320.711 407.562 320.01 407.562 319.202C407.562 318.4 407.699 317.704 407.974 317.114C408.249 316.524 408.632 316.068 409.123 315.746C409.613 315.425 410.18 315.264 410.823 315.264C411.32 315.264 411.713 315.347 412.001 315.513C412.293 315.675 412.515 315.861 412.667 316.07C412.823 316.275 412.944 316.444 413.03 316.577H413.13V312.818H414.303V323H413.17V321.827H413.03C412.944 321.966 412.822 322.142 412.662 322.354C412.503 322.562 412.276 322.75 411.981 322.915C411.686 323.078 411.294 323.159 410.803 323.159ZM410.962 322.105C411.433 322.105 411.831 321.982 412.155 321.737C412.48 321.489 412.727 321.146 412.896 320.708C413.065 320.267 413.15 319.759 413.15 319.182C413.15 318.612 413.067 318.113 412.901 317.685C412.735 317.254 412.49 316.92 412.165 316.681C411.84 316.439 411.439 316.318 410.962 316.318C410.465 316.318 410.051 316.446 409.719 316.701C409.391 316.953 409.144 317.296 408.979 317.73C408.816 318.161 408.735 318.645 408.735 319.182C408.735 319.725 408.818 320.219 408.983 320.663C409.153 321.104 409.401 321.455 409.729 321.717C410.061 321.976 410.472 322.105 410.962 322.105ZM419.817 323.159C419.081 323.159 418.446 322.997 417.912 322.672C417.382 322.344 416.973 321.886 416.684 321.3C416.399 320.71 416.257 320.024 416.257 319.241C416.257 318.459 416.399 317.77 416.684 317.173C416.973 316.573 417.374 316.106 417.888 315.771C418.405 315.433 419.008 315.264 419.697 315.264C420.095 315.264 420.488 315.33 420.876 315.463C421.263 315.596 421.616 315.811 421.934 316.109C422.253 316.404 422.506 316.795 422.695 317.283C422.884 317.77 422.979 318.37 422.979 319.082V319.58H417.092V318.565H421.785C421.785 318.134 421.699 317.75 421.527 317.412C421.358 317.074 421.116 316.807 420.801 316.612C420.489 316.416 420.122 316.318 419.697 316.318C419.23 316.318 418.826 316.434 418.484 316.666C418.146 316.895 417.886 317.193 417.704 317.561C417.521 317.929 417.43 318.323 417.43 318.744V319.42C417.43 319.997 417.53 320.486 417.729 320.887C417.931 321.285 418.211 321.588 418.569 321.797C418.927 322.002 419.343 322.105 419.817 322.105C420.125 322.105 420.403 322.062 420.652 321.976C420.904 321.886 421.121 321.754 421.303 321.578C421.485 321.399 421.626 321.177 421.726 320.912L422.859 321.23C422.74 321.615 422.539 321.953 422.258 322.244C421.976 322.533 421.628 322.758 421.214 322.92C420.799 323.08 420.334 323.159 419.817 323.159ZM427.647 323.159C427.01 323.159 426.449 322.998 425.961 322.677C425.474 322.352 425.093 321.895 424.818 321.305C424.543 320.711 424.405 320.01 424.405 319.202C424.405 318.4 424.543 317.704 424.818 317.114C425.093 316.524 425.476 316.068 425.966 315.746C426.457 315.425 427.024 315.264 427.667 315.264C428.164 315.264 428.557 315.347 428.845 315.513C429.137 315.675 429.359 315.861 429.511 316.07C429.667 316.275 429.788 316.444 429.874 316.577H429.974V312.818H431.147V323H430.013V321.827H429.874C429.788 321.966 429.665 322.142 429.506 322.354C429.347 322.562 429.12 322.75 428.825 322.915C428.53 323.078 428.137 323.159 427.647 323.159ZM427.806 322.105C428.277 322.105 428.674 321.982 428.999 321.737C429.324 321.489 429.571 321.146 429.74 320.708C429.909 320.267 429.993 319.759 429.993 319.182C429.993 318.612 429.911 318.113 429.745 317.685C429.579 317.254 429.334 316.92 429.009 316.681C428.684 316.439 428.283 316.318 427.806 316.318C427.309 316.318 426.894 316.446 426.563 316.701C426.235 316.953 425.988 317.296 425.822 317.73C425.66 318.161 425.579 318.645 425.579 319.182C425.579 319.725 425.662 320.219 425.827 320.663C425.996 321.104 426.245 321.455 426.573 321.717C426.904 321.976 427.315 322.105 427.806 322.105ZM440.717 315.364V316.358H436.76V315.364H440.717ZM437.913 313.534H439.086V320.812C439.086 321.144 439.135 321.393 439.231 321.558C439.33 321.721 439.456 321.83 439.608 321.886C439.764 321.939 439.928 321.966 440.101 321.966C440.23 321.966 440.336 321.959 440.419 321.946C440.502 321.929 440.568 321.916 440.618 321.906L440.856 322.96C440.777 322.99 440.666 323.02 440.523 323.05C440.381 323.083 440.2 323.099 439.981 323.099C439.65 323.099 439.325 323.028 439.007 322.886C438.692 322.743 438.43 322.526 438.221 322.234C438.016 321.943 437.913 321.575 437.913 321.131V313.534ZM445.502 323.159C444.813 323.159 444.208 322.995 443.688 322.667C443.171 322.339 442.766 321.88 442.475 321.29C442.186 320.7 442.042 320.01 442.042 319.222C442.042 318.426 442.186 317.732 442.475 317.138C442.766 316.545 443.171 316.085 443.688 315.756C444.208 315.428 444.813 315.264 445.502 315.264C446.192 315.264 446.795 315.428 447.312 315.756C447.832 316.085 448.237 316.545 448.525 317.138C448.817 317.732 448.963 318.426 448.963 319.222C448.963 320.01 448.817 320.7 448.525 321.29C448.237 321.88 447.832 322.339 447.312 322.667C446.795 322.995 446.192 323.159 445.502 323.159ZM445.502 322.105C446.026 322.105 446.457 321.971 446.795 321.702C447.133 321.434 447.383 321.081 447.546 320.643C447.708 320.206 447.789 319.732 447.789 319.222C447.789 318.711 447.708 318.236 447.546 317.795C447.383 317.354 447.133 316.998 446.795 316.726C446.457 316.454 446.026 316.318 445.502 316.318C444.979 316.318 444.548 316.454 444.21 316.726C443.872 316.998 443.621 317.354 443.459 317.795C443.297 318.236 443.215 318.711 443.215 319.222C443.215 319.732 443.297 320.206 443.459 320.643C443.621 321.081 443.872 321.434 444.21 321.702C444.548 321.971 444.979 322.105 445.502 322.105ZM290.276 340.159C289.54 340.159 288.905 339.997 288.371 339.672C287.841 339.344 287.432 338.886 287.143 338.3C286.858 337.71 286.716 337.024 286.716 336.241C286.716 335.459 286.858 334.77 287.143 334.173C287.432 333.573 287.833 333.106 288.347 332.771C288.864 332.433 289.467 332.264 290.156 332.264C290.554 332.264 290.947 332.33 291.335 332.463C291.722 332.596 292.075 332.811 292.393 333.109C292.712 333.404 292.965 333.795 293.154 334.283C293.343 334.77 293.438 335.37 293.438 336.082V336.58H287.551V335.565H292.244C292.244 335.134 292.158 334.75 291.986 334.412C291.817 334.074 291.575 333.807 291.26 333.612C290.948 333.416 290.58 333.318 290.156 333.318C289.689 333.318 289.285 333.434 288.943 333.666C288.605 333.895 288.345 334.193 288.163 334.561C287.98 334.929 287.889 335.323 287.889 335.744V336.42C287.889 336.997 287.989 337.486 288.188 337.887C288.39 338.285 288.67 338.588 289.028 338.797C289.386 339.002 289.802 339.105 290.276 339.105C290.584 339.105 290.862 339.062 291.111 338.976C291.363 338.886 291.58 338.754 291.762 338.578C291.944 338.399 292.085 338.177 292.185 337.912L293.318 338.23C293.199 338.615 292.998 338.953 292.717 339.244C292.435 339.533 292.087 339.758 291.673 339.92C291.258 340.08 290.793 340.159 290.276 340.159ZM296.396 335.406V340H295.222V332.364H296.356V333.557H296.455C296.634 333.169 296.906 332.857 297.271 332.622C297.635 332.384 298.106 332.264 298.683 332.264C299.2 332.264 299.652 332.37 300.04 332.582C300.428 332.791 300.729 333.109 300.945 333.537C301.16 333.961 301.268 334.498 301.268 335.148V340H300.094V335.227C300.094 334.627 299.939 334.16 299.627 333.825C299.316 333.487 298.888 333.318 298.344 333.318C297.97 333.318 297.635 333.399 297.34 333.562C297.049 333.724 296.818 333.961 296.649 334.273C296.48 334.584 296.396 334.962 296.396 335.406ZM308.821 334.074L307.767 334.372C307.701 334.196 307.603 334.026 307.474 333.86C307.348 333.691 307.175 333.552 306.956 333.442C306.738 333.333 306.458 333.278 306.116 333.278C305.649 333.278 305.26 333.386 304.948 333.602C304.64 333.814 304.486 334.084 304.486 334.412C304.486 334.704 304.592 334.934 304.804 335.103C305.016 335.272 305.347 335.413 305.798 335.526L306.932 335.804C307.614 335.97 308.123 336.223 308.458 336.565C308.793 336.903 308.96 337.339 308.96 337.872C308.96 338.31 308.834 338.701 308.582 339.045C308.334 339.39 307.986 339.662 307.538 339.861C307.091 340.06 306.57 340.159 305.977 340.159C305.198 340.159 304.554 339.99 304.043 339.652C303.533 339.314 303.21 338.82 303.074 338.17L304.187 337.892C304.293 338.303 304.494 338.611 304.789 338.817C305.087 339.022 305.477 339.125 305.957 339.125C306.504 339.125 306.938 339.009 307.26 338.777C307.585 338.542 307.747 338.26 307.747 337.932C307.747 337.667 307.654 337.445 307.469 337.266C307.283 337.083 306.998 336.947 306.613 336.858L305.341 336.56C304.641 336.394 304.128 336.137 303.8 335.789C303.475 335.438 303.312 334.999 303.312 334.472C303.312 334.041 303.433 333.66 303.675 333.328C303.921 332.997 304.254 332.737 304.675 332.548C305.099 332.359 305.579 332.264 306.116 332.264C306.872 332.264 307.465 332.43 307.896 332.761C308.33 333.093 308.639 333.53 308.821 334.074ZM315.539 336.878V332.364H316.712V340H315.539V338.707H315.459C315.28 339.095 315.002 339.425 314.624 339.697C314.246 339.965 313.769 340.099 313.192 340.099C312.715 340.099 312.291 339.995 311.919 339.786C311.548 339.574 311.257 339.256 311.044 338.832C310.832 338.404 310.726 337.866 310.726 337.216V332.364H311.9V337.136C311.9 337.693 312.055 338.137 312.367 338.469C312.682 338.8 313.083 338.966 313.57 338.966C313.862 338.966 314.158 338.891 314.46 338.742C314.765 338.593 315.02 338.364 315.225 338.056C315.434 337.748 315.539 337.355 315.539 336.878ZM318.861 340V332.364H319.994V333.517H320.074C320.213 333.139 320.465 332.833 320.83 332.597C321.194 332.362 321.605 332.244 322.063 332.244C322.149 332.244 322.257 332.246 322.386 332.249C322.515 332.253 322.613 332.258 322.679 332.264V333.457C322.639 333.447 322.548 333.433 322.406 333.413C322.267 333.389 322.119 333.378 321.963 333.378C321.592 333.378 321.261 333.456 320.969 333.612C320.681 333.764 320.452 333.976 320.283 334.248C320.117 334.516 320.034 334.823 320.034 335.168V340H318.861ZM327.039 340.159C326.303 340.159 325.669 339.997 325.135 339.672C324.605 339.344 324.195 338.886 323.907 338.3C323.622 337.71 323.48 337.024 323.48 336.241C323.48 335.459 323.622 334.77 323.907 334.173C324.195 333.573 324.597 333.106 325.11 332.771C325.627 332.433 326.231 332.264 326.92 332.264C327.318 332.264 327.71 332.33 328.098 332.463C328.486 332.596 328.839 332.811 329.157 333.109C329.475 333.404 329.729 333.795 329.918 334.283C330.107 334.77 330.201 335.37 330.201 336.082V336.58H324.315V335.565H329.008C329.008 335.134 328.922 334.75 328.749 334.412C328.58 334.074 328.338 333.807 328.024 333.612C327.712 333.416 327.344 333.318 326.92 333.318C326.453 333.318 326.048 333.434 325.707 333.666C325.369 333.895 325.109 334.193 324.926 334.561C324.744 334.929 324.653 335.323 324.653 335.744V336.42C324.653 336.997 324.752 337.486 324.951 337.887C325.153 338.285 325.433 338.588 325.791 338.797C326.149 339.002 326.565 339.105 327.039 339.105C327.347 339.105 327.626 339.062 327.874 338.976C328.126 338.886 328.343 338.754 328.526 338.578C328.708 338.399 328.849 338.177 328.948 337.912L330.082 338.23C329.963 338.615 329.762 338.953 329.48 339.244C329.199 339.533 328.851 339.758 328.436 339.92C328.022 340.08 327.556 340.159 327.039 340.159ZM339.026 340.159C338.31 340.159 337.693 339.99 337.176 339.652C336.659 339.314 336.262 338.848 335.983 338.255C335.705 337.662 335.566 336.984 335.566 336.222C335.566 335.446 335.708 334.762 335.993 334.168C336.281 333.572 336.682 333.106 337.196 332.771C337.713 332.433 338.316 332.264 339.006 332.264C339.543 332.264 340.027 332.364 340.458 332.562C340.888 332.761 341.241 333.04 341.517 333.398C341.792 333.756 341.962 334.173 342.029 334.651H340.855C340.766 334.303 340.567 333.994 340.259 333.726C339.954 333.454 339.543 333.318 339.026 333.318C338.568 333.318 338.167 333.437 337.823 333.676C337.481 333.911 337.214 334.245 337.022 334.675C336.833 335.103 336.739 335.605 336.739 336.182C336.739 336.772 336.832 337.286 337.017 337.723C337.206 338.161 337.471 338.5 337.813 338.742C338.157 338.984 338.562 339.105 339.026 339.105C339.331 339.105 339.607 339.052 339.856 338.946C340.105 338.84 340.315 338.688 340.487 338.489C340.66 338.29 340.782 338.051 340.855 337.773H342.029C341.962 338.223 341.798 338.629 341.536 338.991C341.278 339.349 340.935 339.634 340.507 339.846C340.083 340.055 339.589 340.159 339.026 340.159ZM344.917 329.818V340H343.744V329.818H344.917ZM347.066 340V332.364H348.239V340H347.066ZM347.663 331.091C347.434 331.091 347.237 331.013 347.071 330.857C346.909 330.701 346.827 330.514 346.827 330.295C346.827 330.077 346.909 329.889 347.071 329.734C347.237 329.578 347.434 329.5 347.663 329.5C347.891 329.5 348.087 329.578 348.249 329.734C348.415 329.889 348.498 330.077 348.498 330.295C348.498 330.514 348.415 330.701 348.249 330.857C348.087 331.013 347.891 331.091 347.663 331.091ZM353.59 340.159C352.854 340.159 352.22 339.997 351.686 339.672C351.156 339.344 350.746 338.886 350.458 338.3C350.173 337.71 350.03 337.024 350.03 336.241C350.03 335.459 350.173 334.77 350.458 334.173C350.746 333.573 351.147 333.106 351.661 332.771C352.178 332.433 352.781 332.264 353.471 332.264C353.868 332.264 354.261 332.33 354.649 332.463C355.037 332.596 355.39 332.811 355.708 333.109C356.026 333.404 356.28 333.795 356.469 334.283C356.657 334.77 356.752 335.37 356.752 336.082V336.58H350.866V335.565H355.559C355.559 335.134 355.473 334.75 355.3 334.412C355.131 334.074 354.889 333.807 354.574 333.612C354.263 333.416 353.895 333.318 353.471 333.318C353.003 333.318 352.599 333.434 352.258 333.666C351.92 333.895 351.659 334.193 351.477 334.561C351.295 334.929 351.204 335.323 351.204 335.744V336.42C351.204 336.997 351.303 337.486 351.502 337.887C351.704 338.285 351.984 338.588 352.342 338.797C352.7 339.002 353.116 339.105 353.59 339.105C353.898 339.105 354.177 339.062 354.425 338.976C354.677 338.886 354.894 338.754 355.077 338.578C355.259 338.399 355.4 338.177 355.499 337.912L356.633 338.23C356.513 338.615 356.313 338.953 356.031 339.244C355.749 339.533 355.401 339.758 354.987 339.92C354.573 340.08 354.107 340.159 353.59 340.159ZM359.71 335.406V340H358.537V332.364H359.67V333.557H359.77C359.949 333.169 360.22 332.857 360.585 332.622C360.95 332.384 361.42 332.264 361.997 332.264C362.514 332.264 362.966 332.37 363.354 332.582C363.742 332.791 364.044 333.109 364.259 333.537C364.474 333.961 364.582 334.498 364.582 335.148V340H363.409V335.227C363.409 334.627 363.253 334.16 362.942 333.825C362.63 333.487 362.202 333.318 361.659 333.318C361.284 333.318 360.95 333.399 360.655 333.562C360.363 333.724 360.133 333.961 359.964 334.273C359.795 334.584 359.71 334.962 359.71 335.406ZM370.047 332.364V333.358H366.09V332.364H370.047ZM367.243 330.534H368.417V337.812C368.417 338.144 368.465 338.393 368.561 338.558C368.66 338.721 368.786 338.83 368.939 338.886C369.094 338.939 369.258 338.966 369.431 338.966C369.56 338.966 369.666 338.959 369.749 338.946C369.832 338.929 369.898 338.916 369.948 338.906L370.186 339.96C370.107 339.99 369.996 340.02 369.853 340.05C369.711 340.083 369.53 340.099 369.311 340.099C368.98 340.099 368.655 340.028 368.337 339.886C368.022 339.743 367.76 339.526 367.551 339.234C367.346 338.943 367.243 338.575 367.243 338.131V330.534ZM378.852 340.159C378.163 340.159 377.558 339.995 377.037 339.667C376.52 339.339 376.116 338.88 375.824 338.29C375.536 337.7 375.392 337.01 375.392 336.222C375.392 335.426 375.536 334.732 375.824 334.138C376.116 333.545 376.52 333.085 377.037 332.756C377.558 332.428 378.163 332.264 378.852 332.264C379.541 332.264 380.145 332.428 380.662 332.756C381.182 333.085 381.586 333.545 381.875 334.138C382.166 334.732 382.312 335.426 382.312 336.222C382.312 337.01 382.166 337.7 381.875 338.29C381.586 338.88 381.182 339.339 380.662 339.667C380.145 339.995 379.541 340.159 378.852 340.159ZM378.852 339.105C379.376 339.105 379.806 338.971 380.145 338.702C380.483 338.434 380.733 338.081 380.895 337.643C381.058 337.206 381.139 336.732 381.139 336.222C381.139 335.711 381.058 335.236 380.895 334.795C380.733 334.354 380.483 333.998 380.145 333.726C379.806 333.454 379.376 333.318 378.852 333.318C378.328 333.318 377.897 333.454 377.559 333.726C377.221 333.998 376.971 334.354 376.809 334.795C376.646 335.236 376.565 335.711 376.565 336.222C376.565 336.732 376.646 337.206 376.809 337.643C376.971 338.081 377.221 338.434 377.559 338.702C377.897 338.971 378.328 339.105 378.852 339.105ZM388.916 336.878V332.364H390.089V340H388.916V338.707H388.836C388.657 339.095 388.379 339.425 388.001 339.697C387.623 339.965 387.146 340.099 386.569 340.099C386.092 340.099 385.668 339.995 385.296 339.786C384.925 339.574 384.633 339.256 384.421 338.832C384.209 338.404 384.103 337.866 384.103 337.216V332.364H385.276V337.136C385.276 337.693 385.432 338.137 385.744 338.469C386.059 338.8 386.46 338.966 386.947 338.966C387.239 338.966 387.535 338.891 387.837 338.742C388.142 338.593 388.397 338.364 388.602 338.056C388.811 337.748 388.916 337.355 388.916 336.878ZM395.559 332.364V333.358H391.602V332.364H395.559ZM392.755 330.534H393.928V337.812C393.928 338.144 393.976 338.393 394.072 338.558C394.172 338.721 394.298 338.83 394.45 338.886C394.606 338.939 394.77 338.966 394.942 338.966C395.072 338.966 395.178 338.959 395.261 338.946C395.344 338.929 395.41 338.916 395.46 338.906L395.698 339.96C395.619 339.99 395.508 340.02 395.365 340.05C395.223 340.083 395.042 340.099 394.823 340.099C394.492 340.099 394.167 340.028 393.849 339.886C393.534 339.743 393.272 339.526 393.063 339.234C392.858 338.943 392.755 338.575 392.755 338.131V330.534ZM400.344 340.159C399.628 340.159 399.012 339.99 398.495 339.652C397.978 339.314 397.58 338.848 397.301 338.255C397.023 337.662 396.884 336.984 396.884 336.222C396.884 335.446 397.026 334.762 397.311 334.168C397.6 333.572 398.001 333.106 398.515 332.771C399.032 332.433 399.635 332.264 400.324 332.264C400.861 332.264 401.345 332.364 401.776 332.562C402.207 332.761 402.56 333.04 402.835 333.398C403.11 333.756 403.281 334.173 403.347 334.651H402.174C402.084 334.303 401.885 333.994 401.577 333.726C401.272 333.454 400.861 333.318 400.344 333.318C399.887 333.318 399.486 333.437 399.141 333.676C398.8 333.911 398.533 334.245 398.341 334.675C398.152 335.103 398.057 335.605 398.057 336.182C398.057 336.772 398.15 337.286 398.336 337.723C398.525 338.161 398.79 338.5 399.131 338.742C399.476 338.984 399.88 339.105 400.344 339.105C400.649 339.105 400.926 339.052 401.174 338.946C401.423 338.84 401.633 338.688 401.806 338.489C401.978 338.29 402.101 338.051 402.174 337.773H403.347C403.281 338.223 403.117 338.629 402.855 338.991C402.596 339.349 402.253 339.634 401.826 339.846C401.401 340.055 400.908 340.159 400.344 340.159ZM408.164 340.159C407.475 340.159 406.87 339.995 406.35 339.667C405.833 339.339 405.428 338.88 405.137 338.29C404.848 337.7 404.704 337.01 404.704 336.222C404.704 335.426 404.848 334.732 405.137 334.138C405.428 333.545 405.833 333.085 406.35 332.756C406.87 332.428 407.475 332.264 408.164 332.264C408.854 332.264 409.457 332.428 409.974 332.756C410.494 333.085 410.899 333.545 411.187 334.138C411.479 334.732 411.625 335.426 411.625 336.222C411.625 337.01 411.479 337.7 411.187 338.29C410.899 338.88 410.494 339.339 409.974 339.667C409.457 339.995 408.854 340.159 408.164 340.159ZM408.164 339.105C408.688 339.105 409.119 338.971 409.457 338.702C409.795 338.434 410.045 338.081 410.208 337.643C410.37 337.206 410.451 336.732 410.451 336.222C410.451 335.711 410.37 335.236 410.208 334.795C410.045 334.354 409.795 333.998 409.457 333.726C409.119 333.454 408.688 333.318 408.164 333.318C407.641 333.318 407.21 333.454 406.872 333.726C406.534 333.998 406.283 334.354 406.121 334.795C405.959 335.236 405.877 335.711 405.877 336.222C405.877 336.732 405.959 337.206 406.121 337.643C406.283 338.081 406.534 338.434 406.872 338.702C407.21 338.971 407.641 339.105 408.164 339.105ZM413.416 340V332.364H414.549V333.557H414.649C414.808 333.149 415.065 332.833 415.419 332.607C415.774 332.379 416.2 332.264 416.697 332.264C417.201 332.264 417.62 332.379 417.955 332.607C418.293 332.833 418.556 333.149 418.745 333.557H418.825C419.02 333.162 419.314 332.849 419.705 332.617C420.096 332.382 420.565 332.264 421.112 332.264C421.794 332.264 422.353 332.478 422.787 332.906C423.221 333.33 423.438 333.991 423.438 334.889V340H422.265V334.889C422.265 334.326 422.111 333.923 421.803 333.681C421.494 333.439 421.132 333.318 420.714 333.318C420.177 333.318 419.761 333.481 419.466 333.805C419.171 334.127 419.024 334.535 419.024 335.028V340H417.83V334.77C417.83 334.336 417.69 333.986 417.408 333.721C417.126 333.452 416.763 333.318 416.319 333.318C416.014 333.318 415.729 333.399 415.464 333.562C415.202 333.724 414.99 333.95 414.828 334.238C414.669 334.523 414.589 334.853 414.589 335.227V340H413.416ZM428.785 340.159C428.05 340.159 427.415 339.997 426.881 339.672C426.351 339.344 425.942 338.886 425.653 338.3C425.368 337.71 425.226 337.024 425.226 336.241C425.226 335.459 425.368 334.77 425.653 334.173C425.942 333.573 426.343 333.106 426.856 332.771C427.373 332.433 427.977 332.264 428.666 332.264C429.064 332.264 429.456 332.33 429.844 332.463C430.232 332.596 430.585 332.811 430.903 333.109C431.221 333.404 431.475 333.795 431.664 334.283C431.853 334.77 431.947 335.37 431.947 336.082V336.58H426.061V335.565H430.754C430.754 335.134 430.668 334.75 430.496 334.412C430.327 334.074 430.085 333.807 429.77 333.612C429.458 333.416 429.09 333.318 428.666 333.318C428.199 333.318 427.794 333.434 427.453 333.666C427.115 333.895 426.855 334.193 426.672 334.561C426.49 334.929 426.399 335.323 426.399 335.744V336.42C426.399 336.997 426.498 337.486 426.697 337.887C426.899 338.285 427.18 338.588 427.537 338.797C427.895 339.002 428.311 339.105 428.785 339.105C429.094 339.105 429.372 339.062 429.621 338.976C429.872 338.886 430.09 338.754 430.272 338.578C430.454 338.399 430.595 338.177 430.694 337.912L431.828 338.23C431.709 338.615 431.508 338.953 431.226 339.244C430.945 339.533 430.597 339.758 430.182 339.92C429.768 340.08 429.302 340.159 428.785 340.159ZM439.141 334.074L438.087 334.372C438.021 334.196 437.923 334.026 437.794 333.86C437.668 333.691 437.496 333.552 437.277 333.442C437.058 333.333 436.778 333.278 436.437 333.278C435.969 333.278 435.58 333.386 435.268 333.602C434.96 333.814 434.806 334.084 434.806 334.412C434.806 334.704 434.912 334.934 435.124 335.103C435.336 335.272 435.668 335.413 436.118 335.526L437.252 335.804C437.935 335.97 438.443 336.223 438.778 336.565C439.113 336.903 439.28 337.339 439.28 337.872C439.28 338.31 439.154 338.701 438.903 339.045C438.654 339.39 438.306 339.662 437.858 339.861C437.411 340.06 436.891 340.159 436.297 340.159C435.519 340.159 434.874 339.99 434.363 339.652C433.853 339.314 433.53 338.82 433.394 338.17L434.508 337.892C434.614 338.303 434.814 338.611 435.109 338.817C435.407 339.022 435.797 339.125 436.278 339.125C436.824 339.125 437.259 339.009 437.58 338.777C437.905 338.542 438.067 338.26 438.067 337.932C438.067 337.667 437.974 337.445 437.789 337.266C437.603 337.083 437.318 336.947 436.934 336.858L435.661 336.56C434.962 336.394 434.448 336.137 434.12 335.789C433.795 335.438 433.633 334.999 433.633 334.472C433.633 334.041 433.754 333.66 433.996 333.328C434.241 332.997 434.574 332.737 434.995 332.548C435.419 332.359 435.9 332.264 436.437 332.264C437.192 332.264 437.786 332.43 438.216 332.761C438.651 333.093 438.959 333.53 439.141 334.074ZM289.321 357.179C288.837 357.179 288.398 357.088 288.004 356.906C287.609 356.72 287.296 356.453 287.064 356.105C286.832 355.754 286.716 355.33 286.716 354.832C286.716 354.395 286.802 354.04 286.974 353.768C287.147 353.493 287.377 353.278 287.665 353.122C287.954 352.966 288.272 352.85 288.62 352.774C288.971 352.695 289.324 352.632 289.679 352.585C290.143 352.526 290.519 352.481 290.808 352.451C291.099 352.418 291.311 352.363 291.444 352.287C291.58 352.211 291.648 352.078 291.648 351.889V351.849C291.648 351.359 291.513 350.978 291.245 350.706C290.98 350.434 290.577 350.298 290.037 350.298C289.477 350.298 289.038 350.421 288.719 350.666C288.401 350.911 288.178 351.173 288.048 351.452L286.935 351.054C287.134 350.59 287.399 350.229 287.73 349.97C288.065 349.708 288.429 349.526 288.824 349.423C289.222 349.317 289.613 349.264 289.997 349.264C290.242 349.264 290.524 349.294 290.842 349.354C291.164 349.41 291.474 349.528 291.772 349.707C292.074 349.886 292.324 350.156 292.523 350.517C292.722 350.878 292.821 351.362 292.821 351.969V357H291.648V355.966H291.588C291.509 356.132 291.376 356.309 291.19 356.498C291.005 356.687 290.758 356.848 290.45 356.98C290.141 357.113 289.765 357.179 289.321 357.179ZM289.5 356.125C289.964 356.125 290.355 356.034 290.673 355.852C290.995 355.669 291.237 355.434 291.399 355.146C291.565 354.857 291.648 354.554 291.648 354.236V353.162C291.598 353.222 291.489 353.276 291.32 353.326C291.154 353.372 290.962 353.414 290.743 353.45C290.527 353.483 290.317 353.513 290.112 353.54C289.909 353.563 289.745 353.583 289.619 353.599C289.314 353.639 289.029 353.704 288.764 353.793C288.502 353.879 288.29 354.01 288.128 354.186C287.969 354.358 287.889 354.594 287.889 354.892C287.889 355.3 288.04 355.608 288.342 355.817C288.647 356.022 289.033 356.125 289.5 356.125ZM298.065 357.159C297.349 357.159 296.732 356.99 296.215 356.652C295.698 356.314 295.301 355.848 295.022 355.255C294.744 354.662 294.605 353.984 294.605 353.222C294.605 352.446 294.747 351.762 295.032 351.168C295.32 350.572 295.722 350.106 296.235 349.771C296.752 349.433 297.356 349.264 298.045 349.264C298.582 349.264 299.066 349.364 299.497 349.562C299.927 349.761 300.28 350.04 300.556 350.398C300.831 350.756 301.001 351.173 301.068 351.651H299.894C299.805 351.303 299.606 350.994 299.298 350.726C298.993 350.454 298.582 350.318 298.065 350.318C297.607 350.318 297.206 350.437 296.862 350.676C296.52 350.911 296.253 351.245 296.061 351.675C295.872 352.103 295.778 352.605 295.778 353.182C295.778 353.772 295.871 354.286 296.056 354.723C296.245 355.161 296.51 355.5 296.852 355.742C297.196 355.984 297.601 356.105 298.065 356.105C298.37 356.105 298.646 356.052 298.895 355.946C299.144 355.84 299.354 355.688 299.526 355.489C299.699 355.29 299.821 355.051 299.894 354.773H301.068C301.001 355.223 300.837 355.629 300.575 355.991C300.317 356.349 299.974 356.634 299.546 356.846C299.122 357.055 298.628 357.159 298.065 357.159ZM303.956 352.406V357H302.783V346.818H303.956V350.557H304.056C304.235 350.162 304.503 349.849 304.861 349.617C305.222 349.382 305.703 349.264 306.303 349.264C306.823 349.264 307.279 349.369 307.67 349.577C308.061 349.783 308.364 350.099 308.58 350.527C308.798 350.951 308.908 351.491 308.908 352.148V357H307.735V352.227C307.735 351.621 307.577 351.152 307.262 350.82C306.951 350.486 306.518 350.318 305.965 350.318C305.58 350.318 305.235 350.399 304.931 350.562C304.629 350.724 304.39 350.961 304.215 351.273C304.042 351.584 303.956 351.962 303.956 352.406ZM311.054 357V349.364H312.228V357H311.054ZM311.651 348.091C311.422 348.091 311.225 348.013 311.059 347.857C310.897 347.701 310.816 347.514 310.816 347.295C310.816 347.077 310.897 346.889 311.059 346.734C311.225 346.578 311.422 346.5 311.651 346.5C311.88 346.5 312.075 346.578 312.238 346.734C312.403 346.889 312.486 347.077 312.486 347.295C312.486 347.514 312.403 347.701 312.238 347.857C312.075 348.013 311.88 348.091 311.651 348.091ZM317.578 357.159C316.843 357.159 316.208 356.997 315.674 356.672C315.144 356.344 314.735 355.886 314.446 355.3C314.161 354.71 314.019 354.024 314.019 353.241C314.019 352.459 314.161 351.77 314.446 351.173C314.735 350.573 315.136 350.106 315.649 349.771C316.166 349.433 316.77 349.264 317.459 349.264C317.857 349.264 318.249 349.33 318.637 349.463C319.025 349.596 319.378 349.811 319.696 350.109C320.014 350.404 320.268 350.795 320.457 351.283C320.646 351.77 320.74 352.37 320.74 353.082V353.58H314.854V352.565H319.547C319.547 352.134 319.461 351.75 319.289 351.412C319.119 351.074 318.878 350.807 318.563 350.612C318.251 350.416 317.883 350.318 317.459 350.318C316.992 350.318 316.587 350.434 316.246 350.666C315.908 350.895 315.648 351.193 315.465 351.561C315.283 351.929 315.192 352.323 315.192 352.744V353.42C315.192 353.997 315.291 354.486 315.49 354.887C315.692 355.285 315.972 355.588 316.33 355.797C316.688 356.002 317.104 356.105 317.578 356.105C317.887 356.105 318.165 356.062 318.414 355.976C318.665 355.886 318.883 355.754 319.065 355.578C319.247 355.399 319.388 355.177 319.487 354.912L320.621 355.23C320.502 355.615 320.301 355.953 320.019 356.244C319.738 356.533 319.39 356.758 318.975 356.92C318.561 357.08 318.095 357.159 317.578 357.159ZM328.537 349.364L325.713 357H324.52L321.696 349.364H322.969L325.077 355.449H325.156L327.264 349.364H328.537ZM333.014 357.159C332.278 357.159 331.643 356.997 331.11 356.672C330.579 356.344 330.17 355.886 329.882 355.3C329.597 354.71 329.454 354.024 329.454 353.241C329.454 352.459 329.597 351.77 329.882 351.173C330.17 350.573 330.571 350.106 331.085 349.771C331.602 349.433 332.205 349.264 332.895 349.264C333.292 349.264 333.685 349.33 334.073 349.463C334.461 349.596 334.814 349.811 335.132 350.109C335.45 350.404 335.703 350.795 335.892 351.283C336.081 351.77 336.176 352.37 336.176 353.082V353.58H330.289V352.565H334.983C334.983 352.134 334.896 351.75 334.724 351.412C334.555 351.074 334.313 350.807 333.998 350.612C333.687 350.416 333.319 350.318 332.895 350.318C332.427 350.318 332.023 350.434 331.681 350.666C331.343 350.895 331.083 351.193 330.901 351.561C330.719 351.929 330.627 352.323 330.627 352.744V353.42C330.627 353.997 330.727 354.486 330.926 354.887C331.128 355.285 331.408 355.588 331.766 355.797C332.124 356.002 332.54 356.105 333.014 356.105C333.322 356.105 333.6 356.062 333.849 355.976C334.101 355.886 334.318 355.754 334.5 355.578C334.683 355.399 334.824 355.177 334.923 354.912L336.056 355.23C335.937 355.615 335.737 355.953 335.455 356.244C335.173 356.533 334.825 356.758 334.411 356.92C333.997 357.08 333.531 357.159 333.014 357.159ZM340.844 357.159C340.208 357.159 339.646 356.998 339.159 356.677C338.672 356.352 338.29 355.895 338.015 355.305C337.74 354.711 337.603 354.01 337.603 353.202C337.603 352.4 337.74 351.704 338.015 351.114C338.29 350.524 338.673 350.068 339.164 349.746C339.654 349.425 340.221 349.264 340.864 349.264C341.361 349.264 341.754 349.347 342.042 349.513C342.334 349.675 342.556 349.861 342.708 350.07C342.864 350.275 342.985 350.444 343.071 350.577H343.171V346.818H344.344V357H343.211V355.827H343.071C342.985 355.966 342.863 356.142 342.703 356.354C342.544 356.562 342.317 356.75 342.022 356.915C341.727 357.078 341.335 357.159 340.844 357.159ZM341.003 356.105C341.474 356.105 341.872 355.982 342.196 355.737C342.521 355.489 342.768 355.146 342.937 354.708C343.106 354.267 343.191 353.759 343.191 353.182C343.191 352.612 343.108 352.113 342.942 351.685C342.776 351.254 342.531 350.92 342.206 350.681C341.882 350.439 341.48 350.318 341.003 350.318C340.506 350.318 340.092 350.446 339.76 350.701C339.432 350.953 339.185 351.296 339.02 351.73C338.857 352.161 338.776 352.645 338.776 353.182C338.776 353.725 338.859 354.219 339.025 354.663C339.194 355.104 339.442 355.455 339.77 355.717C340.102 355.976 340.513 356.105 341.003 356.105Z" fill="#606060"/>
<line x1="273.5" y1="2.18557e-08" x2="273.5" y2="390" stroke="#626262" stroke-dasharray="2 6"/>
</g>
<defs>
<clipPath id="clip0_8_28">
<rect width="772" height="435" fill="white"/>
</clipPath>
</defs>
</svg>
