<svg width="772" height="435" viewBox="0 0 772 435" fill="none" xmlns="http://www.w3.org/2000/svg">
<g clip-path="url(#clip0_2_2)">
<rect width="772" height="435" fill="white"/>
<line x1="54.5" y1="2.18557e-08" x2="54.5" y2="389" stroke="#3F0A3C"/>
<line x1="54" y1="388.5" x2="772" y2="388.5" stroke="#32032F"/>
<path d="M364.676 416.912V415.818H372.312V416.912H369.111V426H367.878V416.912H364.676ZM374.056 426V418.364H375.23V426H374.056ZM374.653 417.091C374.424 417.091 374.227 417.013 374.061 416.857C373.899 416.701 373.818 416.514 373.818 416.295C373.818 416.077 373.899 415.889 374.061 415.734C374.227 415.578 374.424 415.5 374.653 415.5C374.882 415.5 375.077 415.578 375.24 415.734C375.405 415.889 375.488 416.077 375.488 416.295C375.488 416.514 375.405 416.701 375.24 416.857C375.077 417.013 374.882 417.091 374.653 417.091ZM377.379 426V418.364H378.512V419.557H378.612C378.771 419.149 379.027 418.833 379.382 418.607C379.737 418.379 380.163 418.264 380.66 418.264C381.164 418.264 381.583 418.379 381.918 418.607C382.256 418.833 382.519 419.149 382.708 419.557H382.788C382.983 419.162 383.277 418.849 383.668 418.617C384.059 418.382 384.528 418.264 385.075 418.264C385.757 418.264 386.316 418.478 386.75 418.906C387.184 419.33 387.401 419.991 387.401 420.889V426H386.228V420.889C386.228 420.326 386.074 419.923 385.766 419.681C385.457 419.439 385.094 419.318 384.677 419.318C384.14 419.318 383.724 419.481 383.429 419.805C383.134 420.127 382.987 420.535 382.987 421.028V426H381.793V420.77C381.793 420.336 381.652 419.986 381.371 419.721C381.089 419.452 380.726 419.318 380.282 419.318C379.977 419.318 379.692 419.399 379.427 419.562C379.165 419.724 378.953 419.95 378.79 420.238C378.631 420.523 378.552 420.853 378.552 421.227V426H377.379ZM392.748 426.159C392.012 426.159 391.378 425.997 390.844 425.672C390.314 425.344 389.904 424.886 389.616 424.3C389.331 423.71 389.189 423.024 389.189 422.241C389.189 421.459 389.331 420.77 389.616 420.173C389.904 419.573 390.306 419.106 390.819 418.771C391.336 418.433 391.94 418.264 392.629 418.264C393.027 418.264 393.419 418.33 393.807 418.463C394.195 418.596 394.548 418.811 394.866 419.109C395.184 419.404 395.438 419.795 395.627 420.283C395.816 420.77 395.91 421.37 395.91 422.082V422.58H390.024V421.565H394.717C394.717 421.134 394.631 420.75 394.458 420.412C394.289 420.074 394.047 419.807 393.733 419.612C393.421 419.416 393.053 419.318 392.629 419.318C392.162 419.318 391.757 419.434 391.416 419.666C391.078 419.895 390.818 420.193 390.635 420.561C390.453 420.929 390.362 421.323 390.362 421.744V422.42C390.362 422.997 390.461 423.486 390.66 423.887C390.862 424.285 391.142 424.588 391.5 424.797C391.858 425.002 392.274 425.105 392.748 425.105C393.056 425.105 393.335 425.062 393.583 424.976C393.835 424.886 394.052 424.754 394.235 424.578C394.417 424.399 394.558 424.177 394.657 423.912L395.791 424.23C395.672 424.615 395.471 424.953 395.189 425.244C394.908 425.533 394.56 425.758 394.145 425.92C393.731 426.08 393.265 426.159 392.748 426.159Z" fill="#1E011C"/>
<path d="M14 227.767L3.81818 227.767L3.81818 224.327C3.81818 223.528 3.96236 222.875 4.25071 222.368C4.53575 221.857 4.92187 221.48 5.40909 221.234C5.89631 220.989 6.43987 220.866 7.03977 220.866C7.63968 220.866 8.1849 220.989 8.67543 221.234C9.16596 221.476 9.55705 221.851 9.84872 222.358C10.1371 222.865 10.2812 223.515 10.2812 224.307L10.2812 226.773L9.1875 226.773L9.1875 224.347C9.1875 223.8 9.09304 223.361 8.90412 223.029C8.7152 222.698 8.45999 222.457 8.13849 222.308C7.81368 222.156 7.44744 222.08 7.03977 222.08C6.6321 222.08 6.26752 222.156 5.94602 222.308C5.62453 222.457 5.37263 222.699 5.19034 223.034C5.00473 223.369 4.91193 223.813 4.91193 224.366L4.91193 226.534L14 226.534L14 227.767ZM14 219.039L6.36364 219.039L6.36364 217.906L7.51704 217.906L7.51704 217.826C7.1392 217.687 6.83262 217.435 6.5973 217.071C6.36198 216.706 6.24432 216.295 6.24432 215.838C6.24432 215.752 6.24597 215.644 6.24929 215.515C6.2526 215.385 6.25758 215.288 6.2642 215.221L7.45739 215.221C7.44744 215.261 7.43253 215.352 7.41264 215.495C7.38944 215.634 7.37784 215.781 7.37784 215.937C7.37784 216.308 7.45573 216.64 7.61151 216.931C7.76397 217.22 7.97609 217.449 8.24787 217.618C8.51633 217.783 8.82292 217.866 9.16761 217.866L14 217.866L14 219.039ZM14.1591 210.961C14.1591 211.65 13.995 212.255 13.6669 212.775C13.3388 213.292 12.8797 213.697 12.2898 213.988C11.6998 214.277 11.0104 214.421 10.2216 214.421C9.42614 214.421 8.73177 214.277 8.13849 213.988C7.54522 213.697 7.08452 213.292 6.75639 212.775C6.42827 212.255 6.2642 211.65 6.2642 210.961C6.2642 210.271 6.42827 209.668 6.75639 209.151C7.08452 208.631 7.54522 208.226 8.13849 207.938C8.73177 207.646 9.42614 207.5 10.2216 207.5C11.0104 207.5 11.6998 207.646 12.2898 207.938C12.8797 208.226 13.3388 208.631 13.6669 209.151C13.995 209.668 14.1591 210.271 14.1591 210.961ZM13.1051 210.961C13.1051 210.437 12.9709 210.006 12.7024 209.668C12.4339 209.33 12.081 209.08 11.6435 208.917C11.206 208.755 10.732 208.674 10.2216 208.674C9.71117 208.674 9.23556 208.755 8.79474 208.917C8.35393 209.08 7.99763 209.33 7.72585 209.668C7.45407 210.006 7.31818 210.437 7.31818 210.961C7.31818 211.484 7.45407 211.915 7.72585 212.253C7.99763 212.591 8.35393 212.842 8.79474 213.004C9.23556 213.166 9.71117 213.248 10.2216 213.248C10.732 213.248 11.206 213.166 11.6435 213.004C12.081 212.842 12.4339 212.591 12.7024 212.253C12.9709 211.915 13.1051 211.484 13.1051 210.961ZM6.36363 202.309L7.35795 202.309L7.35795 206.425L6.36364 206.425L6.36363 202.309ZM14 205.192L5.30966 205.192C4.87216 205.192 4.50757 205.09 4.21591 204.884C3.92424 204.679 3.70549 204.412 3.55966 204.084C3.41382 203.756 3.34091 203.409 3.34091 203.045C3.34091 202.756 3.36411 202.521 3.41051 202.339C3.45691 202.156 3.5 202.02 3.53977 201.931L4.55398 202.269C4.53409 202.329 4.50923 202.412 4.4794 202.518C4.44957 202.62 4.43466 202.756 4.43466 202.925C4.43466 203.313 4.53243 203.593 4.72798 203.765C4.92353 203.934 5.21023 204.019 5.58807 204.019L14 204.019L14 205.192ZM14 200.664L6.36363 200.664L6.36363 199.491L14 199.491L14 200.664ZM5.09091 200.068C5.09091 200.297 5.01302 200.494 4.85724 200.659C4.70147 200.822 4.5142 200.903 4.29545 200.903C4.0767 200.903 3.88944 200.822 3.73366 200.659C3.57789 200.494 3.5 200.297 3.5 200.068C3.5 199.839 3.57789 199.644 3.73366 199.481C3.88944 199.315 4.0767 199.233 4.29545 199.233C4.5142 199.233 4.70147 199.315 4.85724 199.481C5.01302 199.644 5.09091 199.839 5.09091 200.068ZM6.36363 194.021L7.35795 194.021L7.35795 197.979L6.36363 197.979L6.36363 194.021ZM4.53409 196.825L4.53409 195.652L11.8125 195.652C12.1439 195.652 12.3925 195.604 12.5582 195.508C12.7206 195.408 12.83 195.282 12.8864 195.13C12.9394 194.974 12.9659 194.81 12.9659 194.638C12.9659 194.508 12.9593 194.402 12.946 194.319C12.9294 194.237 12.9162 194.17 12.9062 194.121L13.9602 193.882C13.9901 193.961 14.0199 194.073 14.0497 194.215C14.0829 194.358 14.0994 194.538 14.0994 194.757C14.0994 195.088 14.0282 195.413 13.8857 195.731C13.7431 196.046 13.526 196.308 13.2344 196.517C12.9427 196.722 12.5748 196.825 12.1307 196.825L4.53409 196.825Z" fill="#1E011C"/>
<path d="M738.15 9.5439L726.605 9.32676L732.189 19.4336L738.15 9.5439ZM56.0534 387.573L730.756 14.7718L729.788 13.0213L55.0861 385.823L56.0534 387.573Z" fill="#C82C61"/>
<path d="M570.652 80.855L565.879 71.8612L569.023 70.1925C569.65 69.86 570.224 69.6941 570.746 69.6948C571.266 69.6925 571.722 69.8201 572.114 70.0775C572.504 70.3319 572.816 70.6787 573.049 71.1179C573.254 71.5043 573.355 71.8599 573.351 72.1847C573.35 72.508 573.277 72.8019 573.132 73.0663C572.99 73.3292 572.809 73.5642 572.588 73.7712L572.635 73.859C572.92 73.7305 573.248 73.6803 573.619 73.7084C573.99 73.7364 574.357 73.8647 574.718 74.0931C575.079 74.3216 575.386 74.673 575.638 75.1472C575.877 75.5981 575.99 76.058 575.976 76.5268C575.962 76.9957 575.79 77.4528 575.46 77.8982C575.13 78.3436 574.61 78.7543 573.902 79.1303L570.652 80.855ZM571.228 79.3109L573.389 78.1642C574.1 77.7866 574.532 77.381 574.685 76.9473C574.839 76.5092 574.811 76.0925 574.601 75.6973C574.44 75.3928 574.213 75.1529 573.921 74.9776C573.628 74.7994 573.296 74.7088 572.927 74.7059C572.556 74.7001 572.175 74.8013 571.782 75.0095L569.569 76.1841L571.228 79.3109ZM569.066 75.2356L571.086 74.1635C571.414 73.9895 571.675 73.7681 571.87 73.4995C572.068 73.2293 572.183 72.9359 572.214 72.6193C572.247 72.3012 572.18 71.9841 572.013 71.6679C571.803 71.2727 571.487 71.0105 571.066 70.8813C570.643 70.7492 570.133 70.8417 569.536 71.1586L567.481 72.2494L569.066 75.2356ZM578.554 76.6611L574.975 69.9158L576.011 69.3657L579.591 76.111L578.554 76.6611ZM574.905 68.5119C574.703 68.6191 574.492 68.6427 574.273 68.5828C574.056 68.5213 573.897 68.394 573.794 68.2008C573.692 68.0075 573.676 67.8041 573.746 67.5903C573.82 67.375 573.957 67.2138 574.159 67.1066C574.361 66.9994 574.571 66.9765 574.787 67.038C575.006 67.0979 575.167 67.2245 575.27 67.4177C575.372 67.6109 575.387 67.8152 575.314 68.0305C575.243 68.2442 575.107 68.4047 574.905 68.5119ZM577.752 65.5599L582.525 74.5536L581.489 75.1036L576.716 66.1099L577.752 65.5599ZM580.687 64.0025L585.46 72.9962L584.424 73.5462L579.651 64.5525L580.687 64.0025ZM589.427 71.0935C589 71.3203 588.569 71.4457 588.135 71.4695C587.7 71.4905 587.298 71.4016 586.93 71.203C586.56 71.0014 586.259 70.6811 586.026 70.2419C585.821 69.8555 585.731 69.5018 585.756 69.181C585.779 68.8572 585.881 68.5589 586.063 68.2861C586.245 68.0133 586.471 67.7617 586.743 67.5312C587.016 67.2963 587.298 67.0752 587.59 66.8679C587.972 66.5977 588.283 66.3818 588.524 66.2203C588.766 66.0543 588.928 65.9066 589.009 65.7771C589.093 65.6461 589.091 65.4971 589.003 65.3302L588.984 65.2951C588.754 64.8618 588.457 64.588 588.092 64.4738C587.731 64.3581 587.311 64.4268 586.834 64.6801C586.339 64.9426 586.009 65.2568 585.843 65.6226C585.677 65.9884 585.602 66.3246 585.618 66.6311L584.448 66.8019C584.406 66.2988 584.471 65.8553 584.643 65.4716C584.815 65.0834 585.052 64.7515 585.352 64.4758C585.654 64.1957 585.974 63.9655 586.314 63.7853C586.531 63.6703 586.794 63.5646 587.103 63.4681C587.413 63.3672 587.742 63.3258 588.089 63.3441C588.44 63.3608 588.787 63.4821 589.132 63.708C589.477 63.9339 589.792 64.3147 590.076 64.8505L592.435 69.2946L591.398 69.8447L590.914 68.9312L590.861 68.9592C590.868 69.1429 590.834 69.3616 590.759 69.6155C590.684 69.8694 590.541 70.1272 590.331 70.3888C590.121 70.6504 589.819 70.8853 589.427 71.0935ZM589.091 70.0786C589.501 69.861 589.804 69.5972 589.999 69.287C590.198 68.9753 590.301 68.654 590.31 68.3232C590.321 67.9908 590.252 67.684 590.103 67.403L589.599 66.4544C589.583 66.5304 589.512 66.63 589.386 66.7532C589.262 66.8718 589.111 66.9986 588.935 67.1333C588.76 67.2636 588.588 67.3886 588.419 67.5083C588.252 67.6236 588.116 67.7181 588.013 67.7918C587.762 67.9698 587.54 68.1606 587.348 68.3639C587.157 68.5628 587.031 68.7778 586.97 69.0091C586.91 69.236 586.95 69.4811 587.09 69.7446C587.281 70.1047 587.559 70.3063 587.923 70.3493C588.289 70.3879 588.678 70.2976 589.091 70.0786ZM594.467 68.2162L589.694 59.2224L590.73 58.6724L592.492 61.9923L592.58 61.9457C592.594 61.7882 592.62 61.583 592.659 61.33C592.698 61.0725 592.807 60.8045 592.986 60.5259C593.166 60.2427 593.475 59.9847 593.915 59.7516C594.483 59.4502 595.059 59.3265 595.643 59.3805C596.227 59.4345 596.778 59.6576 597.298 60.0498C597.817 60.442 598.265 60.9923 598.641 61.7008C599.02 62.4151 599.227 63.0988 599.263 63.7518C599.296 64.4019 599.174 64.9846 598.896 65.4999C598.616 66.0123 598.195 66.4176 597.633 66.7159C597.2 66.9459 596.815 67.0583 596.478 67.0531C596.14 67.045 595.852 66.986 595.613 66.8762C595.373 66.7634 595.183 66.6657 595.041 66.5831L594.918 66.6484L595.468 67.6848L594.467 68.2162ZM593.696 64.3028C593.966 64.8122 594.279 65.222 594.635 65.5321C594.99 65.8393 595.369 66.0266 595.772 66.0939C596.174 66.1583 596.583 66.0802 596.999 65.8595C597.432 65.6296 597.733 65.3235 597.901 64.9413C598.071 64.5547 598.126 64.1278 598.066 63.6608C598.007 63.1892 597.85 62.7134 597.596 62.2332C597.344 61.759 597.044 61.3704 596.695 61.0675C596.348 60.7601 595.97 60.5728 595.559 60.5057C595.149 60.4341 594.725 60.5148 594.286 60.7479C593.864 60.9716 593.567 61.2664 593.393 61.6324C593.218 61.9955 593.158 62.4062 593.214 62.8644C593.268 63.3198 593.429 63.7992 593.696 64.3028ZM598.27 54.6708L603.044 63.6645L602.007 64.2145L597.234 55.2208L598.27 54.6708ZM607.844 61.2967C607.195 61.6417 606.558 61.7957 605.934 61.759C605.312 61.7177 604.736 61.5056 604.206 61.1226C603.678 60.7351 603.23 60.1959 602.864 59.5049C602.497 58.814 602.3 58.1383 602.272 57.4777C602.245 56.8126 602.38 56.2118 602.677 55.6753C602.976 55.1343 603.429 54.7022 604.038 54.379C604.389 54.1926 604.767 54.067 605.172 54.0023C605.577 53.9376 605.99 53.9625 606.41 54.0768C606.83 54.1882 607.237 54.4148 607.632 54.7566C608.028 55.0984 608.392 55.584 608.726 56.2135L608.959 56.6526L603.76 59.412L603.284 58.5162L607.43 56.3161C607.228 55.9355 606.972 55.6363 606.661 55.4185C606.353 55.1991 606.014 55.0768 605.645 55.0517C605.278 55.025 604.907 55.1111 604.532 55.31C604.119 55.5291 603.817 55.8211 603.624 56.1861C603.432 56.5465 603.342 56.932 603.354 57.3424C603.365 57.7529 603.47 58.144 603.667 58.5158L603.984 59.113C604.254 59.6224 604.571 60.0077 604.935 60.2687C605.3 60.5252 605.69 60.6618 606.104 60.6784C606.516 60.6922 606.932 60.5879 607.35 60.3657C607.623 60.2212 607.848 60.0527 608.028 59.86C608.208 59.6629 608.338 59.444 608.416 59.2034C608.493 58.9598 608.514 58.6977 608.477 58.4168L609.628 58.1665C609.703 58.5621 609.684 58.9547 609.572 59.3444C609.458 59.7311 609.256 60.0934 608.967 60.431C608.675 60.7658 608.301 61.0543 607.844 61.2967ZM614.5 52.3837L616.654 56.4414L615.617 56.9914L610.844 47.9977L611.881 47.4477L613.633 50.7501L613.721 50.7034C613.694 50.2712 613.785 49.8686 613.992 49.4959C614.201 49.1187 614.57 48.7895 615.1 48.5082C615.56 48.2643 616.011 48.1429 616.455 48.144C616.896 48.1422 617.313 48.2796 617.703 48.5563C618.096 48.8284 618.445 49.2544 618.753 49.8341L621.028 54.1201L619.991 54.6702L617.754 50.4543C617.47 49.9186 617.111 49.5781 616.677 49.433C616.245 49.2833 615.785 49.3382 615.296 49.5977C614.956 49.7779 614.69 50.0113 614.496 50.2977C614.306 50.5825 614.206 50.9037 614.197 51.2612C614.191 51.6172 614.292 51.9914 614.5 52.3837ZM625.739 51.8001C625.13 52.1233 624.518 52.262 623.905 52.216C623.294 52.1686 622.722 51.9527 622.188 51.5683C621.657 51.1823 621.206 50.641 620.836 49.9442C620.463 49.2415 620.265 48.5606 620.242 47.9014C620.221 47.2406 620.363 46.6441 620.665 46.1119C620.971 45.5781 621.429 45.1497 622.038 44.8265C622.647 44.5033 623.256 44.3654 623.867 44.4129C624.48 44.4588 625.053 44.6762 625.586 45.0651C626.122 45.4524 626.576 45.9974 626.949 46.7C627.319 47.3968 627.513 48.0741 627.532 48.7319C627.554 49.3882 627.412 49.9833 627.106 50.517C626.803 51.0493 626.348 51.477 625.739 51.8001ZM625.245 50.8691C625.707 50.6237 626.025 50.3031 626.198 49.9075C626.37 49.5119 626.426 49.0828 626.364 48.6202C626.303 48.1576 626.152 47.7009 625.913 47.25C625.674 46.7992 625.379 46.4171 625.029 46.1039C624.679 45.7906 624.291 45.5932 623.865 45.5116C623.439 45.43 622.994 45.512 622.532 45.7575C622.069 46.003 621.752 46.325 621.581 46.7235C621.41 47.1221 621.356 47.5541 621.419 48.0196C621.482 48.4851 621.633 48.9433 621.873 49.3942C622.112 49.845 622.406 50.2256 622.754 50.5359C623.103 50.8462 623.489 51.0407 623.914 51.1194C624.338 51.198 624.782 51.1146 625.245 50.8691ZM633.09 44.1841L630.974 40.1966L632.01 39.6466L635.59 46.3919L634.553 46.9419L633.948 45.8001L633.877 45.8374C633.901 46.2638 633.81 46.6857 633.603 47.1029C633.395 47.5171 633.037 47.8594 632.527 48.1298C632.106 48.3535 631.682 48.4602 631.256 48.4497C630.829 48.4364 630.422 48.2921 630.036 48.0168C629.648 47.7385 629.302 47.3125 628.997 46.7387L626.723 42.4526L627.759 41.9026L629.996 46.1184C630.258 46.6103 630.603 46.9295 631.034 47.0763C631.467 47.2214 631.899 47.1798 632.33 46.9514C632.587 46.8147 632.814 46.6097 633.011 46.3366C633.21 46.0619 633.329 45.7403 633.366 45.3717C633.406 45.0015 633.314 44.6056 633.09 44.1841ZM637.488 45.3845L633.908 38.6392L634.91 38.1078L635.45 39.1266L635.521 39.0893C635.466 38.6903 635.545 38.3014 635.757 37.9227C635.969 37.5439 636.276 37.2473 636.68 37.0329C636.757 36.9925 636.853 36.9435 636.968 36.8858C637.084 36.8281 637.173 36.7867 637.234 36.7615L637.794 37.8154C637.754 37.8253 637.666 37.8548 637.531 37.9041C637.397 37.9488 637.262 38.0077 637.124 38.0808C636.796 38.2548 636.54 38.4789 636.355 38.7533C636.172 39.0231 636.069 39.3177 636.048 39.637C636.027 39.9518 636.098 40.2615 636.259 40.566L638.524 44.8345L637.488 45.3845ZM645.567 41.0968L641.988 34.3515L642.989 33.8201L643.548 34.874L643.636 34.8274C643.585 34.3928 643.664 33.9928 643.871 33.6274C644.078 33.2592 644.4 32.9585 644.839 32.7254C645.284 32.4893 645.708 32.3937 646.111 32.4388C646.515 32.4794 646.897 32.6355 647.255 32.907L647.325 32.8697C647.313 32.4297 647.425 32.0155 647.662 31.6272C647.897 31.236 648.256 30.9122 648.739 30.6559C649.342 30.3358 649.936 30.2628 650.519 30.437C651.102 30.6082 651.604 31.0905 652.025 31.8839L654.421 36.3983L653.384 36.9483L650.988 32.4339C650.724 31.9362 650.399 31.6527 650.014 31.5835C649.628 31.5143 649.251 31.5776 648.882 31.7733C648.407 32.025 648.116 32.3635 648.008 32.7887C647.898 33.2109 647.959 33.6402 648.19 34.0764L650.521 38.4679L649.467 39.0272L647.015 34.4074C646.812 34.0239 646.523 33.781 646.15 33.6789C645.775 33.5738 645.392 33.6254 645 33.8336C644.73 33.9765 644.517 34.1819 644.358 34.4496C644.203 34.7158 644.122 35.0143 644.113 35.3452C644.106 35.6715 644.191 36.0001 644.366 36.3309L646.604 40.5468L645.567 41.0968ZM659.13 34.0789C658.521 34.4021 657.91 34.5407 657.297 34.4948C656.686 34.4473 656.114 34.2314 655.58 33.847C655.048 33.4611 654.598 32.9197 654.228 32.2229C653.855 31.5203 653.657 30.8394 653.634 30.1801C653.613 29.5194 653.754 28.9229 654.057 28.3906C654.363 27.8569 654.82 27.4284 655.429 27.1052C656.038 26.782 656.648 26.6442 657.259 26.6916C657.872 26.7375 658.445 26.9549 658.978 27.3438C659.514 27.7311 659.968 28.2761 660.341 28.9787C660.711 29.6755 660.905 30.3528 660.924 31.0107C660.946 31.667 660.804 32.262 660.498 32.7958C660.195 33.328 659.739 33.7557 659.13 34.0789ZM658.636 33.1479C659.099 32.9024 659.416 32.5818 659.589 32.1862C659.762 31.7906 659.818 31.3615 659.756 30.8989C659.694 30.4363 659.544 29.9796 659.305 29.5288C659.065 29.0779 658.771 28.6959 658.42 28.3826C658.07 28.0694 657.682 27.8719 657.256 27.7904C656.83 27.7088 656.386 27.7907 655.923 28.0362C655.461 28.2817 655.144 28.6037 654.973 29.0023C654.802 29.4008 654.747 29.8328 654.811 30.2984C654.874 30.7639 655.025 31.222 655.264 31.6729C655.504 32.1238 655.798 32.5044 656.146 32.8147C656.495 33.125 656.881 33.3195 657.306 33.3981C657.73 33.4768 658.174 33.3934 658.636 33.1479ZM666.316 30.2654C665.754 30.5638 665.182 30.6851 664.601 30.6295C664.018 30.571 663.467 30.3457 662.948 29.9535C662.427 29.5584 661.977 29.0037 661.597 28.2894C661.221 27.5809 661.017 26.9016 660.983 26.2515C660.95 25.6014 661.074 25.0194 661.357 24.5055C661.639 23.9916 662.064 23.5839 662.632 23.2825C663.072 23.0494 663.457 22.9385 663.79 22.9497C664.123 22.9564 664.407 23.0163 664.639 23.1292C664.873 23.2377 665.059 23.3303 665.198 23.407L665.285 23.3604L663.523 20.0405L664.56 19.4904L669.333 28.4842L668.332 29.0156L667.782 27.9792L667.659 28.0444C667.648 28.2078 667.622 28.4204 667.581 28.6824C667.538 28.9414 667.425 29.2133 667.242 29.4979C667.058 29.7797 666.749 30.0355 666.316 30.2654ZM665.962 29.2599C666.378 29.0392 666.672 28.7445 666.844 28.3756C667.014 28.0037 667.071 27.585 667.016 27.1193C666.958 26.6507 666.794 26.1616 666.524 25.6522C666.257 25.1487 665.95 24.7469 665.603 24.4469C665.255 24.144 664.881 23.9633 664.482 23.9048C664.082 23.8433 663.671 23.9245 663.249 24.1482C662.81 24.3813 662.504 24.6882 662.331 25.069C662.159 25.4453 662.102 25.8641 662.159 26.3253C662.218 26.782 662.373 27.2475 662.625 27.7218C662.879 28.2019 663.184 28.5993 663.539 28.9139C663.895 29.2241 664.279 29.4179 664.691 29.4953C665.105 29.5683 665.529 29.4898 665.962 29.2599ZM674.278 26.0401C673.628 26.385 672.991 26.5391 672.367 26.5023C671.745 26.4611 671.169 26.249 670.639 25.8659C670.111 25.4784 669.663 24.9392 669.297 24.2483C668.93 23.5574 668.733 22.8816 668.705 22.221C668.678 21.5559 668.814 20.9551 669.11 20.4186C669.409 19.8776 669.862 19.4455 670.471 19.1224C670.823 18.9359 671.201 18.8103 671.605 18.7457C672.01 18.681 672.423 18.7058 672.844 18.8201C673.263 18.9315 673.67 19.1581 674.065 19.4999C674.461 19.8417 674.825 20.3274 675.159 20.9568L675.393 21.396L670.193 24.1554L669.718 23.2595L673.863 21.0594C673.661 20.6788 673.405 20.3796 673.094 20.1618C672.786 19.9424 672.448 19.8202 672.078 19.7951C671.711 19.7684 671.34 19.8545 670.965 20.0533C670.552 20.2724 670.25 20.5644 670.057 20.9294C669.866 21.2899 669.776 21.6754 669.787 22.0858C669.798 22.4962 669.903 22.8873 670.1 23.2591L670.417 23.8564C670.687 24.3658 671.004 24.751 671.368 25.012C671.733 25.2686 672.123 25.4052 672.537 25.4218C672.949 25.4355 673.365 25.3313 673.783 25.1091C674.056 24.9646 674.281 24.796 674.461 24.6034C674.641 24.4062 674.771 24.1874 674.85 23.9467C674.927 23.7032 674.947 23.441 674.91 23.1602L676.061 22.9099C676.136 23.3054 676.117 23.698 676.005 24.0877C675.891 24.4745 675.69 24.8367 675.4 25.1744C675.108 25.5091 674.734 25.7977 674.278 26.0401ZM674.836 14.0369L679.609 23.0306L678.573 23.5806L673.799 14.5869L674.836 14.0369Z" fill="#C82C61"/>
</g>
<defs>
<clipPath id="clip0_2_2">
<rect width="772" height="435" fill="white"/>
</clipPath>
</defs>
</svg>
