<svg width="772" height="435" viewBox="0 0 772 435" fill="none" xmlns="http://www.w3.org/2000/svg">
<g clip-path="url(#clip0_7_18)">
<rect width="772" height="435" fill="white"/>
<line x1="54.5" y1="2.18557e-08" x2="54.5" y2="389" stroke="#3F0A3C"/>
<line x1="54" y1="388.5" x2="772" y2="388.5" stroke="#32032F"/>
<path d="M364.676 416.912V415.818H372.312V416.912H369.111V426H367.878V416.912H364.676ZM374.056 426V418.364H375.23V426H374.056ZM374.653 417.091C374.424 417.091 374.227 417.013 374.061 416.857C373.899 416.701 373.818 416.514 373.818 416.295C373.818 416.077 373.899 415.889 374.061 415.734C374.227 415.578 374.424 415.5 374.653 415.5C374.882 415.5 375.077 415.578 375.24 415.734C375.405 415.889 375.488 416.077 375.488 416.295C375.488 416.514 375.405 416.701 375.24 416.857C375.077 417.013 374.882 417.091 374.653 417.091ZM377.379 426V418.364H378.512V419.557H378.612C378.771 419.149 379.027 418.833 379.382 418.607C379.737 418.379 380.163 418.264 380.66 418.264C381.164 418.264 381.583 418.379 381.918 418.607C382.256 418.833 382.519 419.149 382.708 419.557H382.788C382.983 419.162 383.277 418.849 383.668 418.617C384.059 418.382 384.528 418.264 385.075 418.264C385.757 418.264 386.316 418.478 386.75 418.906C387.184 419.33 387.401 419.991 387.401 420.889V426H386.228V420.889C386.228 420.326 386.074 419.923 385.766 419.681C385.457 419.439 385.094 419.318 384.677 419.318C384.14 419.318 383.724 419.481 383.429 419.805C383.134 420.127 382.987 420.535 382.987 421.028V426H381.793V420.77C381.793 420.336 381.652 419.986 381.371 419.721C381.089 419.452 380.726 419.318 380.282 419.318C379.977 419.318 379.692 419.399 379.427 419.562C379.165 419.724 378.953 419.95 378.79 420.238C378.631 420.523 378.552 420.853 378.552 421.227V426H377.379ZM392.748 426.159C392.012 426.159 391.378 425.997 390.844 425.672C390.314 425.344 389.904 424.886 389.616 424.3C389.331 423.71 389.189 423.024 389.189 422.241C389.189 421.459 389.331 420.77 389.616 420.173C389.904 419.573 390.306 419.106 390.819 418.771C391.336 418.433 391.94 418.264 392.629 418.264C393.027 418.264 393.419 418.33 393.807 418.463C394.195 418.596 394.548 418.811 394.866 419.109C395.184 419.404 395.438 419.795 395.627 420.283C395.816 420.77 395.91 421.37 395.91 422.082V422.58H390.024V421.565H394.717C394.717 421.134 394.631 420.75 394.458 420.412C394.289 420.074 394.047 419.807 393.733 419.612C393.421 419.416 393.053 419.318 392.629 419.318C392.162 419.318 391.757 419.434 391.416 419.666C391.078 419.895 390.818 420.193 390.635 420.561C390.453 420.929 390.362 421.323 390.362 421.744V422.42C390.362 422.997 390.461 423.486 390.66 423.887C390.862 424.285 391.142 424.588 391.5 424.797C391.858 425.002 392.274 425.105 392.748 425.105C393.056 425.105 393.335 425.062 393.583 424.976C393.835 424.886 394.052 424.754 394.235 424.578C394.417 424.399 394.558 424.177 394.657 423.912L395.791 424.23C395.672 424.615 395.471 424.953 395.189 425.244C394.908 425.533 394.56 425.758 394.145 425.92C393.731 426.08 393.265 426.159 392.748 426.159Z" fill="#1E011C"/>
<path d="M14 227.767L3.81818 227.767L3.81818 224.327C3.81818 223.528 3.96236 222.875 4.25071 222.368C4.53575 221.857 4.92187 221.48 5.40909 221.234C5.89631 220.989 6.43987 220.866 7.03977 220.866C7.63968 220.866 8.1849 220.989 8.67543 221.234C9.16596 221.476 9.55705 221.851 9.84872 222.358C10.1371 222.865 10.2812 223.515 10.2812 224.307L10.2812 226.773L9.1875 226.773L9.1875 224.347C9.1875 223.8 9.09304 223.361 8.90412 223.029C8.7152 222.698 8.45999 222.457 8.13849 222.308C7.81368 222.156 7.44744 222.08 7.03977 222.08C6.6321 222.08 6.26752 222.156 5.94602 222.308C5.62453 222.457 5.37263 222.699 5.19034 223.034C5.00473 223.369 4.91193 223.813 4.91193 224.366L4.91193 226.534L14 226.534L14 227.767ZM14 219.039L6.36364 219.039L6.36364 217.906L7.51704 217.906L7.51704 217.826C7.1392 217.687 6.83262 217.435 6.5973 217.071C6.36198 216.706 6.24432 216.295 6.24432 215.838C6.24432 215.752 6.24597 215.644 6.24929 215.515C6.2526 215.385 6.25758 215.288 6.2642 215.221L7.45739 215.221C7.44744 215.261 7.43253 215.352 7.41264 215.495C7.38944 215.634 7.37784 215.781 7.37784 215.937C7.37784 216.308 7.45573 216.64 7.61151 216.931C7.76397 217.22 7.97609 217.449 8.24787 217.618C8.51633 217.783 8.82292 217.866 9.16761 217.866L14 217.866L14 219.039ZM14.1591 210.961C14.1591 211.65 13.995 212.255 13.6669 212.775C13.3388 213.292 12.8797 213.697 12.2898 213.988C11.6998 214.277 11.0104 214.421 10.2216 214.421C9.42614 214.421 8.73177 214.277 8.13849 213.988C7.54522 213.697 7.08452 213.292 6.75639 212.775C6.42827 212.255 6.2642 211.65 6.2642 210.961C6.2642 210.271 6.42827 209.668 6.75639 209.151C7.08452 208.631 7.54522 208.226 8.13849 207.938C8.73177 207.646 9.42614 207.5 10.2216 207.5C11.0104 207.5 11.6998 207.646 12.2898 207.938C12.8797 208.226 13.3388 208.631 13.6669 209.151C13.995 209.668 14.1591 210.271 14.1591 210.961ZM13.1051 210.961C13.1051 210.437 12.9709 210.006 12.7024 209.668C12.4339 209.33 12.081 209.08 11.6435 208.917C11.206 208.755 10.732 208.674 10.2216 208.674C9.71117 208.674 9.23556 208.755 8.79474 208.917C8.35393 209.08 7.99763 209.33 7.72585 209.668C7.45407 210.006 7.31818 210.437 7.31818 210.961C7.31818 211.484 7.45407 211.915 7.72585 212.253C7.99763 212.591 8.35393 212.842 8.79474 213.004C9.23556 213.166 9.71117 213.248 10.2216 213.248C10.732 213.248 11.206 213.166 11.6435 213.004C12.081 212.842 12.4339 212.591 12.7024 212.253C12.9709 211.915 13.1051 211.484 13.1051 210.961ZM6.36363 202.309L7.35795 202.309L7.35795 206.425L6.36364 206.425L6.36363 202.309ZM14 205.192L5.30966 205.192C4.87216 205.192 4.50757 205.09 4.21591 204.884C3.92424 204.679 3.70549 204.412 3.55966 204.084C3.41382 203.756 3.34091 203.409 3.34091 203.045C3.34091 202.756 3.36411 202.521 3.41051 202.339C3.45691 202.156 3.5 202.02 3.53977 201.931L4.55398 202.269C4.53409 202.329 4.50923 202.412 4.4794 202.518C4.44957 202.62 4.43466 202.756 4.43466 202.925C4.43466 203.313 4.53243 203.593 4.72798 203.765C4.92353 203.934 5.21023 204.019 5.58807 204.019L14 204.019L14 205.192ZM14 200.664L6.36363 200.664L6.36363 199.491L14 199.491L14 200.664ZM5.09091 200.068C5.09091 200.297 5.01302 200.494 4.85724 200.659C4.70147 200.822 4.5142 200.903 4.29545 200.903C4.0767 200.903 3.88944 200.822 3.73366 200.659C3.57789 200.494 3.5 200.297 3.5 200.068C3.5 199.839 3.57789 199.644 3.73366 199.481C3.88944 199.315 4.0767 199.233 4.29545 199.233C4.5142 199.233 4.70147 199.315 4.85724 199.481C5.01302 199.644 5.09091 199.839 5.09091 200.068ZM6.36363 194.021L7.35795 194.021L7.35795 197.979L6.36363 197.979L6.36363 194.021ZM4.53409 196.825L4.53409 195.652L11.8125 195.652C12.1439 195.652 12.3925 195.604 12.5582 195.508C12.7206 195.408 12.83 195.282 12.8864 195.13C12.9394 194.974 12.9659 194.81 12.9659 194.638C12.9659 194.508 12.9593 194.402 12.946 194.319C12.9294 194.237 12.9162 194.17 12.9062 194.121L13.9602 193.882C13.9901 193.961 14.0199 194.073 14.0497 194.215C14.0829 194.358 14.0994 194.538 14.0994 194.757C14.0994 195.088 14.0282 195.413 13.8857 195.731C13.7431 196.046 13.526 196.308 13.2344 196.517C12.9427 196.722 12.5748 196.825 12.1307 196.825L4.53409 196.825Z" fill="#1E011C"/>
<path opacity="0.2" d="M738.15 9.5439L726.605 9.32676L732.189 19.4336L738.15 9.5439ZM56.0534 387.573L730.756 14.7718L729.788 13.0213L55.0861 385.823L56.0534 387.573Z" fill="#C82C61"/>
<path d="M730 386.154L724.142 376.204L718.453 386.252L730 386.154ZM396.86 197.577L397.352 196.707L396.866 196.431L396.376 196.702L396.86 197.577ZM56.0534 387.03L397.343 198.452L396.376 196.702L55.0861 385.279L56.0534 387.03ZM396.367 198.447L721.675 382.591L722.66 380.85L397.352 196.707L396.367 198.447Z" fill="#C82C61"/>
<path d="M577.652 80.855L572.879 71.8612L576.023 70.1925C576.65 69.86 577.224 69.6941 577.746 69.6948C578.266 69.6926 578.722 69.8201 579.114 70.0775C579.504 70.3319 579.816 70.6787 580.049 71.1179C580.254 71.5043 580.355 71.86 580.351 72.1848C580.35 72.508 580.277 72.8019 580.132 73.0663C579.99 73.3292 579.809 73.5642 579.588 73.7712L579.635 73.859C579.92 73.7305 580.248 73.6803 580.619 73.7084C580.99 73.7364 581.357 73.8647 581.718 74.0931C582.079 74.3216 582.386 74.673 582.638 75.1473C582.877 75.5981 582.99 76.058 582.976 76.5268C582.962 76.9957 582.79 77.4528 582.46 77.8982C582.13 78.3436 581.61 78.7543 580.902 79.1303L577.652 80.855ZM578.228 79.3109L580.389 78.1642C581.1 77.7867 581.532 77.381 581.685 76.9474C581.839 76.5092 581.811 76.0925 581.601 75.6973C581.44 75.3928 581.213 75.1529 580.921 74.9776C580.628 74.7994 580.296 74.7089 579.927 74.706C579.556 74.7001 579.175 74.8013 578.782 75.0095L576.569 76.1841L578.228 79.3109ZM576.066 75.2356L578.086 74.1635C578.414 73.9895 578.675 73.7682 578.87 73.4995C579.068 73.2293 579.183 72.9359 579.214 72.6194C579.247 72.3012 579.18 71.9841 579.013 71.6679C578.803 71.2727 578.487 71.0105 578.066 70.8813C577.643 70.7493 577.133 70.8417 576.536 71.1587L574.481 72.2494L576.066 75.2356ZM585.554 76.6611L581.975 69.9158L583.011 69.3657L586.591 76.1111L585.554 76.6611ZM581.905 68.5119C581.703 68.6191 581.492 68.6427 581.273 68.5828C581.056 68.5214 580.897 68.394 580.794 68.2008C580.692 68.0076 580.676 67.8041 580.746 67.5903C580.82 67.3751 580.957 67.2138 581.159 67.1066C581.361 66.9994 581.571 66.9765 581.787 67.038C582.006 67.0979 582.167 67.2245 582.27 67.4177C582.372 67.6109 582.387 67.8152 582.314 68.0305C582.243 68.2442 582.107 68.4047 581.905 68.5119ZM584.752 65.5599L589.525 74.5536L588.489 75.1037L583.716 66.1099L584.752 65.5599ZM587.687 64.0025L592.46 72.9962L591.424 73.5462L586.651 64.5525L587.687 64.0025ZM596.427 71.0935C596 71.3203 595.569 71.4457 595.135 71.4696C594.7 71.4905 594.298 71.4017 593.93 71.203C593.56 71.0014 593.259 70.6811 593.026 70.2419C592.821 69.8555 592.731 69.5018 592.756 69.181C592.779 68.8572 592.881 68.5589 593.063 68.2861C593.245 68.0134 593.471 67.7617 593.743 67.5312C594.016 67.2963 594.298 67.0752 594.59 66.868C594.972 66.5977 595.283 66.3819 595.524 66.2203C595.766 66.0543 595.928 65.9066 596.009 65.7771C596.093 65.6461 596.091 65.4971 596.003 65.3302L595.984 65.2951C595.754 64.8618 595.457 64.5881 595.092 64.4738C594.731 64.3581 594.311 64.4268 593.834 64.6801C593.339 64.9427 593.009 65.2568 592.843 65.6227C592.677 65.9885 592.602 66.3246 592.618 66.6311L591.448 66.8019C591.406 66.2988 591.471 65.8554 591.643 65.4716C591.815 65.0834 592.052 64.7515 592.352 64.4758C592.654 64.1957 592.974 63.9655 593.314 63.7853C593.531 63.6703 593.794 63.5646 594.103 63.4681C594.413 63.3672 594.742 63.3259 595.089 63.3441C595.44 63.3608 595.787 63.4821 596.132 63.708C596.477 63.9339 596.792 64.3147 597.076 64.8505L599.435 69.2946L598.398 69.8447L597.914 68.9312L597.861 68.9592C597.868 69.1429 597.834 69.3617 597.759 69.6155C597.684 69.8694 597.541 70.1272 597.331 70.3888C597.121 70.6504 596.819 70.8853 596.427 71.0935ZM596.091 70.0786C596.501 69.8611 596.804 69.5972 596.999 69.287C597.198 68.9753 597.301 68.654 597.31 68.3232C597.321 67.9908 597.252 67.6841 597.103 67.403L596.599 66.4545C596.583 66.5305 596.512 66.63 596.386 66.7532C596.262 66.8719 596.111 66.9986 595.935 67.1333C595.76 67.2636 595.588 67.3886 595.419 67.5084C595.252 67.6236 595.116 67.7181 595.013 67.7918C594.762 67.9699 594.54 68.1606 594.348 68.3639C594.157 68.5628 594.031 68.7779 593.97 69.0092C593.91 69.236 593.95 69.4811 594.09 69.7446C594.281 70.1047 594.559 70.3063 594.923 70.3493C595.289 70.3879 595.678 70.2977 596.091 70.0786ZM601.467 68.2162L596.694 59.2224L597.73 58.6724L599.492 61.9924L599.58 61.9457C599.594 61.7882 599.62 61.583 599.659 61.33C599.698 61.0725 599.807 60.8045 599.986 60.5259C600.166 60.2428 600.475 59.9847 600.915 59.7516C601.483 59.4502 602.059 59.3265 602.643 59.3805C603.227 59.4346 603.778 59.6577 604.298 60.0498C604.817 60.442 605.265 60.9923 605.641 61.7008C606.02 62.4151 606.227 63.0988 606.263 63.7518C606.296 64.4019 606.174 64.9846 605.896 65.4999C605.616 66.0123 605.195 66.4176 604.633 66.716C604.2 66.9459 603.815 67.0583 603.478 67.0531C603.14 67.045 602.852 66.986 602.613 66.8762C602.373 66.7634 602.183 66.6657 602.041 66.5831L601.918 66.6484L602.468 67.6848L601.467 68.2162ZM600.696 64.3028C600.966 64.8122 601.279 65.222 601.635 65.5321C601.99 65.8393 602.369 66.0266 602.772 66.0939C603.174 66.1583 603.583 66.0802 603.999 65.8595C604.432 65.6296 604.733 65.3235 604.901 64.9414C605.071 64.5547 605.126 64.1278 605.066 63.6608C605.007 63.1892 604.85 62.7134 604.596 62.2332C604.344 61.759 604.044 61.3704 603.695 61.0675C603.348 60.7601 602.97 60.5728 602.559 60.5057C602.149 60.4341 601.725 60.5148 601.286 60.7479C600.864 60.9716 600.567 61.2665 600.393 61.6324C600.218 61.9955 600.158 62.4062 600.214 62.8645C600.268 63.3198 600.429 63.7993 600.696 64.3028ZM605.27 54.6708L610.044 63.6645L609.007 64.2145L604.234 55.2208L605.27 54.6708ZM614.844 61.2967C614.195 61.6417 613.558 61.7958 612.934 61.759C612.312 61.7178 611.736 61.5056 611.206 61.1226C610.678 60.7351 610.23 60.1959 609.864 59.505C609.497 58.814 609.3 58.1383 609.272 57.4777C609.245 56.8126 609.38 56.2118 609.677 55.6753C609.976 55.1343 610.429 54.7022 611.038 54.379C611.389 54.1926 611.767 54.067 612.172 54.0023C612.577 53.9376 612.99 53.9625 613.41 54.0768C613.83 54.1882 614.237 54.4148 614.632 54.7566C615.028 55.0984 615.392 55.584 615.726 56.2135L615.959 56.6526L610.76 59.412L610.284 58.5162L614.43 56.3161C614.228 55.9355 613.972 55.6363 613.661 55.4185C613.353 55.1991 613.014 55.0768 612.645 55.0517C612.278 55.025 611.907 55.1111 611.532 55.31C611.119 55.5291 610.817 55.8211 610.624 56.1861C610.432 56.5466 610.342 56.932 610.354 57.3424C610.365 57.7529 610.47 58.144 610.667 58.5158L610.984 59.113C611.254 59.6224 611.571 60.0077 611.935 60.2687C612.3 60.5252 612.69 60.6618 613.104 60.6785C613.516 60.6922 613.932 60.5879 614.35 60.3657C614.623 60.2213 614.848 60.0527 615.028 59.86C615.208 59.6629 615.338 59.444 615.416 59.2034C615.493 58.9599 615.514 58.6977 615.477 58.4168L616.628 58.1665C616.703 58.5621 616.684 58.9547 616.572 59.3444C616.458 59.7312 616.256 60.0934 615.967 60.4311C615.675 60.7658 615.301 61.0544 614.844 61.2967ZM621.5 52.3837L623.654 56.4414L622.617 56.9914L617.844 47.9977L618.881 47.4477L620.633 50.7501L620.721 50.7035C620.694 50.2712 620.785 49.8687 620.992 49.4959C621.201 49.1187 621.57 48.7895 622.1 48.5082C622.56 48.2643 623.011 48.1429 623.455 48.144C623.896 48.1422 624.313 48.2796 624.703 48.5563C625.096 48.8285 625.445 49.2544 625.753 49.8341L628.028 54.1202L626.991 54.6702L624.754 50.4544C624.47 49.9186 624.111 49.5781 623.677 49.433C623.245 49.2833 622.785 49.3382 622.296 49.5977C621.956 49.778 621.69 50.0113 621.496 50.2977C621.306 50.5825 621.206 50.9037 621.197 51.2613C621.191 51.6172 621.292 51.9914 621.5 52.3837ZM632.739 51.8002C632.13 52.1233 631.518 52.262 630.905 52.2161C630.294 52.1686 629.722 51.9527 629.188 51.5683C628.657 51.1823 628.206 50.641 627.836 49.9442C627.463 49.2416 627.265 48.5606 627.242 47.9014C627.221 47.2406 627.363 46.6441 627.665 46.1119C627.971 45.5781 628.429 45.1497 629.038 44.8265C629.647 44.5033 630.256 44.3655 630.867 44.4129C631.48 44.4588 632.053 44.6762 632.586 45.0651C633.122 45.4524 633.576 45.9974 633.949 46.7C634.319 47.3968 634.513 48.0741 634.532 48.732C634.554 49.3883 634.412 49.9833 634.106 50.5171C633.803 51.0493 633.348 51.477 632.739 51.8002ZM632.245 50.8692C632.707 50.6237 633.025 50.3031 633.198 49.9075C633.37 49.5119 633.426 49.0828 633.364 48.6202C633.303 48.1576 633.152 47.7009 632.913 47.25C632.674 46.7992 632.379 46.4171 632.029 46.1039C631.679 45.7906 631.291 45.5932 630.865 45.5116C630.439 45.43 629.994 45.512 629.532 45.7575C629.069 46.003 628.752 46.325 628.581 46.7235C628.41 47.1221 628.356 47.5541 628.419 48.0196C628.482 48.4851 628.633 48.9433 628.873 49.3942C629.112 49.845 629.406 50.2256 629.754 50.5359C630.103 50.8463 630.489 51.0407 630.914 51.1194C631.338 51.1981 631.782 51.1146 632.245 50.8692ZM640.09 44.1841L637.974 40.1966L639.01 39.6466L642.59 46.3919L641.553 46.9419L640.948 45.8001L640.877 45.8374C640.901 46.2639 640.81 46.6857 640.603 47.1029C640.395 47.5171 640.037 47.8594 639.527 48.1298C639.106 48.3535 638.682 48.4602 638.256 48.4498C637.829 48.4364 637.422 48.2921 637.036 48.0168C636.648 47.7386 636.302 47.3125 635.997 46.7387L633.723 42.4526L634.759 41.9026L636.996 46.1184C637.258 46.6103 637.603 46.9296 638.034 47.0763C638.467 47.2214 638.899 47.1798 639.33 46.9514C639.587 46.8147 639.814 46.6098 640.011 46.3366C640.21 46.0619 640.329 45.7403 640.366 45.3717C640.406 45.0015 640.314 44.6057 640.09 44.1841ZM644.488 45.3845L640.908 38.6392L641.91 38.1078L642.45 39.1266L642.521 39.0894C642.466 38.6903 642.545 38.3015 642.757 37.9227C642.969 37.5439 643.276 37.2473 643.68 37.0329C643.757 36.9925 643.853 36.9435 643.968 36.8858C644.084 36.8281 644.173 36.7867 644.234 36.7615L644.794 37.8154C644.754 37.8253 644.666 37.8548 644.531 37.9041C644.397 37.9488 644.262 38.0077 644.124 38.0808C643.796 38.2548 643.54 38.479 643.355 38.7533C643.172 39.0231 643.069 39.3177 643.048 39.637C643.027 39.9518 643.098 40.2615 643.259 40.566L645.524 44.8345L644.488 45.3845ZM652.567 41.0968L648.988 34.3515L649.989 33.8201L650.548 34.8741L650.636 34.8275C650.585 34.3928 650.664 33.9928 650.871 33.6274C651.078 33.2592 651.4 32.9585 651.839 32.7255C652.284 32.4893 652.708 32.3938 653.111 32.4388C653.515 32.4794 653.897 32.6355 654.255 32.907L654.325 32.8698C654.313 32.4297 654.425 32.0155 654.662 31.6272C654.897 31.236 655.256 30.9123 655.739 30.6559C656.342 30.3358 656.936 30.2629 657.519 30.437C658.102 30.6082 658.604 31.0905 659.025 31.8839L661.421 36.3983L660.384 36.9483L657.988 32.4339C657.724 31.9362 657.399 31.6527 657.014 31.5835C656.628 31.5143 656.251 31.5776 655.882 31.7733C655.407 32.025 655.116 32.3635 655.008 32.7887C654.898 33.2109 654.959 33.6402 655.19 34.0764L657.521 38.4679L656.467 39.0272L654.015 34.4074C653.812 34.0239 653.523 33.781 653.15 33.6789C652.775 33.5738 652.392 33.6254 652 33.8336C651.73 33.9765 651.517 34.1819 651.358 34.4496C651.203 34.7158 651.122 35.0143 651.113 35.3452C651.106 35.6715 651.191 36.0001 651.366 36.331L653.604 40.5468L652.567 41.0968ZM666.13 34.0789C665.521 34.4021 664.91 34.5407 664.297 34.4948C663.686 34.4474 663.114 34.2314 662.58 33.847C662.048 33.4611 661.598 32.9197 661.228 32.2229C660.855 31.5203 660.657 30.8394 660.634 30.1802C660.613 29.5194 660.754 28.9229 661.057 28.3907C661.363 27.8569 661.82 27.4284 662.429 27.1052C663.038 26.7821 663.648 26.6442 664.259 26.6917C664.872 26.7376 665.445 26.9549 665.978 27.3438C666.514 27.7311 666.968 28.2761 667.341 28.9788C667.711 29.6755 667.905 30.3529 667.924 31.0107C667.946 31.667 667.804 32.262 667.498 32.7958C667.195 33.328 666.739 33.7557 666.13 34.0789ZM665.636 33.1479C666.099 32.9024 666.416 32.5819 666.589 32.1862C666.762 31.7906 666.818 31.3615 666.756 30.8989C666.694 30.4364 666.544 29.9796 666.305 29.5288C666.065 29.0779 665.771 28.6959 665.42 28.3826C665.07 28.0694 664.682 27.872 664.256 27.7904C663.83 27.7088 663.386 27.7907 662.923 28.0362C662.461 28.2817 662.144 28.6037 661.973 29.0023C661.802 29.4008 661.747 29.8329 661.811 30.2984C661.874 30.7639 662.025 31.2221 662.264 31.6729C662.504 32.1238 662.798 32.5044 663.146 32.8147C663.495 33.125 663.881 33.3195 664.306 33.3982C664.73 33.4768 665.174 33.3934 665.636 33.1479ZM673.316 30.2655C672.754 30.5638 672.182 30.6851 671.601 30.6296C671.018 30.5711 670.467 30.3457 669.948 29.9536C669.427 29.5585 668.977 29.0037 668.597 28.2894C668.221 27.5809 668.017 26.9016 667.983 26.2515C667.95 25.6015 668.074 25.0194 668.357 24.5055C668.639 23.9916 669.064 23.5839 669.632 23.2825C670.072 23.0494 670.457 22.9385 670.79 22.9497C671.123 22.9564 671.407 23.0163 671.639 23.1292C671.873 23.2377 672.059 23.3303 672.198 23.407L672.285 23.3604L670.523 20.0405L671.56 19.4905L676.333 28.4842L675.332 29.0156L674.782 27.9792L674.659 28.0444C674.648 28.2078 674.622 28.4205 674.581 28.6824C674.538 28.9414 674.425 29.2133 674.242 29.4979C674.058 29.7797 673.749 30.0355 673.316 30.2655ZM672.962 29.2599C673.378 29.0393 673.672 28.7445 673.844 28.3756C674.014 28.0037 674.071 27.585 674.016 27.1193C673.958 26.6507 673.794 26.1617 673.524 25.6522C673.257 25.1487 672.95 24.7469 672.603 24.4469C672.255 24.144 671.881 23.9633 671.482 23.9048C671.082 23.8433 670.671 23.9245 670.249 24.1482C669.81 24.3813 669.504 24.6882 669.331 25.069C669.159 25.4453 669.102 25.8641 669.159 26.3253C669.218 26.782 669.373 27.2475 669.625 27.7218C669.879 28.2019 670.184 28.5993 670.539 28.9139C670.895 29.2241 671.279 29.4179 671.691 29.4953C672.105 29.5683 672.529 29.4898 672.962 29.2599ZM681.278 26.0401C680.628 26.385 679.991 26.5391 679.367 26.5023C678.745 26.4611 678.169 26.249 677.639 25.866C677.111 25.4785 676.663 24.9392 676.297 24.2483C675.93 23.5574 675.733 22.8816 675.705 22.221C675.678 21.556 675.814 20.9552 676.11 20.4186C676.409 19.8776 676.862 19.4455 677.471 19.1224C677.823 18.9359 678.201 18.8104 678.605 18.7457C679.01 18.681 679.423 18.7058 679.844 18.8202C680.263 18.9316 680.67 19.1582 681.065 19.5C681.461 19.8418 681.825 20.3274 682.159 20.9568L682.393 21.396L677.193 24.1554L676.718 23.2595L680.863 21.0595C680.661 20.6789 680.405 20.3797 680.094 20.1618C679.786 19.9424 679.448 19.8202 679.078 19.7951C678.711 19.7684 678.34 19.8545 677.965 20.0534C677.552 20.2724 677.25 20.5645 677.057 20.9294C676.866 21.2899 676.776 21.6754 676.787 22.0858C676.798 22.4962 676.903 22.8873 677.1 23.2592L677.417 23.8564C677.687 24.3658 678.004 24.751 678.368 25.012C678.733 25.2686 679.123 25.4052 679.537 25.4218C679.949 25.4355 680.365 25.3313 680.783 25.1091C681.056 24.9646 681.281 24.796 681.461 24.6034C681.641 24.4063 681.771 24.1874 681.85 23.9468C681.927 23.7032 681.947 23.441 681.91 23.1602L683.061 22.9099C683.136 23.3054 683.117 23.698 683.005 24.0877C682.891 24.4745 682.69 24.8367 682.4 25.1744C682.108 25.5092 681.734 25.7977 681.278 26.0401ZM681.836 14.0369L686.609 23.0306L685.573 23.5806L680.799 14.5869L681.836 14.0369Z" fill="#C82C61"/>
<path d="M589.929 286.95L588.81 286.303L597.139 279.355L598.241 279.991L596.388 290.678L595.268 290.032L596.919 281.088L596.85 281.048L589.929 286.95ZM592.331 283.744L596.844 286.349L596.297 287.296L591.785 284.691L592.331 283.744ZM607.797 288.448L607.299 289.309L603.734 287.25L604.232 286.389L607.797 288.448ZM601.481 293.619L605.826 286.093C606.045 285.714 606.316 285.45 606.64 285.3C606.964 285.15 607.304 285.094 607.661 285.132C608.019 285.17 608.355 285.28 608.671 285.462C608.92 285.606 609.113 285.744 609.247 285.875C609.382 286.006 609.478 286.112 609.536 286.191L608.736 286.9C608.694 286.853 608.635 286.79 608.558 286.711C608.484 286.634 608.374 286.553 608.227 286.469C607.891 286.275 607.6 286.219 607.353 286.303C607.109 286.387 606.892 286.594 606.703 286.921L602.497 294.206L601.481 293.619ZM607.823 297.464C607.186 297.096 606.718 296.638 606.418 296.09C606.123 295.541 605.997 294.94 606.041 294.288C606.089 293.635 606.308 292.969 606.699 292.292C607.09 291.614 607.559 291.089 608.104 290.714C608.653 290.339 609.234 290.135 609.847 290.102C610.463 290.068 611.07 290.223 611.667 290.568C612.012 290.766 612.319 291.02 612.588 291.329C612.858 291.638 613.056 292.001 613.182 292.418C613.31 292.833 613.334 293.298 613.254 293.815C613.174 294.331 612.956 294.898 612.6 295.515L612.351 295.945L607.254 293.002L607.761 292.124L611.825 294.47C612.041 294.097 612.158 293.721 612.178 293.342C612.201 292.965 612.124 292.613 611.95 292.286C611.778 291.961 611.508 291.692 611.14 291.48C610.736 291.247 610.328 291.145 609.916 291.175C609.509 291.204 609.134 291.332 608.792 291.56C608.451 291.787 608.174 292.083 607.964 292.448L607.626 293.033C607.338 293.533 607.179 294.006 607.151 294.453C607.127 294.898 607.218 295.301 607.424 295.661C607.631 296.018 607.94 296.315 608.35 296.552C608.617 296.706 608.88 296.808 609.138 296.857C609.401 296.906 609.655 296.899 609.901 296.838C610.148 296.775 610.382 296.653 610.6 296.473L611.423 297.315C611.127 297.588 610.785 297.781 610.395 297.893C610.007 298.002 609.592 298.023 609.152 297.956C608.714 297.887 608.271 297.723 607.823 297.464ZM614.88 301.539C614.243 301.171 613.774 300.713 613.475 300.165C613.179 299.615 613.054 299.014 613.097 298.362C613.145 297.709 613.365 297.043 613.756 296.366C614.147 295.689 614.615 295.163 615.16 294.789C615.71 294.413 616.291 294.209 616.903 294.176C617.52 294.142 618.127 294.297 618.724 294.642C619.069 294.841 619.376 295.094 619.645 295.403C619.915 295.712 620.113 296.075 620.239 296.492C620.367 296.907 620.391 297.372 620.311 297.889C620.231 298.405 620.013 298.972 619.657 299.589L619.408 300.02L614.31 297.076L614.817 296.198L618.882 298.545C619.097 298.172 619.215 297.795 619.235 297.417C619.257 297.039 619.181 296.687 619.006 296.36C618.834 296.035 618.565 295.767 618.197 295.555C617.792 295.321 617.384 295.219 616.973 295.249C616.565 295.278 616.191 295.407 615.849 295.634C615.507 295.862 615.231 296.158 615.021 296.522L614.683 297.108C614.394 297.607 614.236 298.08 614.208 298.527C614.184 298.972 614.275 299.375 614.48 299.735C614.688 300.092 614.997 300.389 615.407 300.626C615.674 300.78 615.937 300.882 616.195 300.931C616.458 300.98 616.712 300.974 616.958 300.913C617.205 300.849 617.438 300.727 617.657 300.547L618.48 301.389C618.184 301.663 617.841 301.855 617.451 301.967C617.063 302.076 616.649 302.097 616.209 302.03C615.771 301.961 615.328 301.797 614.88 301.539ZM625.261 307.532C624.641 307.174 624.191 306.719 623.913 306.168C623.634 305.617 623.522 305.015 623.578 304.362C623.633 303.709 623.852 303.052 624.233 302.392C624.621 301.72 625.086 301.199 625.63 300.827C626.178 300.455 626.758 300.252 627.37 300.219C627.987 300.185 628.594 300.34 629.191 300.685C629.656 300.953 630.025 301.281 630.299 301.669C630.573 302.057 630.739 302.474 630.798 302.922C630.858 303.369 630.797 303.816 630.615 304.263L629.599 303.676C629.696 303.33 629.678 302.964 629.545 302.577C629.417 302.189 629.129 301.866 628.681 301.607C628.285 301.379 627.878 301.282 627.46 301.316C627.047 301.349 626.649 301.504 626.267 301.781C625.89 302.057 625.557 302.445 625.269 302.944C624.974 303.455 624.797 303.946 624.739 304.418C624.684 304.891 624.744 305.318 624.919 305.698C625.096 306.08 625.386 306.387 625.788 306.619C626.052 306.772 626.318 306.864 626.586 306.896C626.855 306.929 627.113 306.902 627.362 306.816C627.61 306.73 627.836 306.585 628.038 306.38L629.054 306.967C628.772 307.324 628.427 307.593 628.019 307.775C627.616 307.956 627.177 308.031 626.7 308.001C626.229 307.97 625.749 307.814 625.261 307.532ZM631.283 311.032C630.864 310.79 630.529 310.491 630.279 310.136C630.03 309.778 629.892 309.391 629.865 308.973C629.84 308.553 629.951 308.127 630.2 307.697C630.419 307.318 630.671 307.054 630.956 306.905C631.243 306.753 631.55 306.681 631.877 306.691C632.205 306.7 632.539 306.758 632.878 306.866C633.222 306.973 633.559 307.095 633.89 307.232C634.321 307.413 634.669 307.562 634.934 307.68C635.203 307.797 635.414 307.856 635.567 307.856C635.723 307.858 635.848 307.778 635.943 307.614L635.963 307.579C636.208 307.155 636.282 306.757 636.186 306.388C636.092 306.02 635.811 305.701 635.343 305.431C634.858 305.151 634.416 305.037 634.018 305.091C633.62 305.144 633.295 305.259 633.044 305.435L632.279 304.534C632.683 304.232 633.093 304.051 633.509 303.993C633.93 303.934 634.337 303.958 634.73 304.066C635.128 304.173 635.493 304.323 635.826 304.515C636.038 304.638 636.267 304.805 636.513 305.015C636.763 305.225 636.973 305.482 637.142 305.786C637.313 306.092 637.395 306.451 637.386 306.863C637.378 307.275 637.222 307.744 636.919 308.269L634.403 312.627L633.387 312.04L633.904 311.144L633.853 311.115C633.701 311.218 633.497 311.306 633.242 311.376C632.987 311.447 632.693 311.463 632.36 311.424C632.026 311.384 631.667 311.254 631.283 311.032ZM631.965 310.208C632.367 310.44 632.751 310.557 633.118 310.558C633.487 310.561 633.814 310.478 634.099 310.31C634.387 310.143 634.61 309.922 634.769 309.646L635.306 308.716C635.233 308.743 635.111 308.736 634.94 308.694C634.773 308.651 634.586 308.591 634.378 308.513C634.175 308.434 633.978 308.355 633.787 308.275C633.6 308.194 633.448 308.129 633.331 308.081C633.047 307.963 632.768 307.876 632.493 307.821C632.224 307.765 631.974 307.772 631.746 307.843C631.522 307.913 631.335 308.077 631.186 308.335C630.982 308.688 630.959 309.031 631.116 309.362C631.277 309.693 631.56 309.975 631.965 310.208ZM634.826 316.177L640.076 307.084L641.058 307.651L640.451 308.701L640.572 308.771C640.713 308.699 640.901 308.613 641.135 308.511C641.375 308.408 641.66 308.358 641.991 308.362C642.326 308.364 642.709 308.49 643.14 308.738C643.697 309.06 644.107 309.482 644.371 310.006C644.635 310.53 644.739 311.116 644.682 311.764C644.625 312.413 644.396 313.084 643.995 313.779C643.591 314.479 643.121 315.017 642.587 315.394C642.053 315.767 641.495 315.973 640.91 316.01C640.327 316.045 639.761 315.903 639.209 315.585C638.785 315.34 638.485 315.073 638.311 314.785C638.138 314.494 638.035 314.218 638.002 313.958C637.97 313.695 637.952 313.481 637.947 313.318L637.861 313.268L635.842 316.764L634.826 316.177ZM639.166 310.967C638.878 311.467 638.696 311.95 638.622 312.416C638.55 312.879 638.592 313.3 638.749 313.678C638.908 314.052 639.191 314.358 639.599 314.593C640.024 314.838 640.443 314.931 640.856 314.871C641.274 314.81 641.665 314.63 642.029 314.331C642.397 314.031 642.717 313.646 642.989 313.175C643.258 312.71 643.428 312.249 643.5 311.793C643.576 311.336 643.534 310.916 643.373 310.532C643.216 310.147 642.923 309.83 642.492 309.581C642.079 309.343 641.671 309.247 641.269 309.294C640.868 309.338 640.488 309.506 640.129 309.796C639.772 310.083 639.451 310.474 639.166 310.967ZM647.056 319.932L650.874 313.319L651.89 313.905L648.072 320.518L647.056 319.932ZM652.027 312.515C651.829 312.4 651.698 312.234 651.632 312.016C651.569 311.8 651.592 311.598 651.702 311.408C651.811 311.219 651.975 311.097 652.194 311.043C652.415 310.991 652.625 311.022 652.823 311.137C653.021 311.251 653.151 311.416 653.214 311.633C653.28 311.85 653.258 312.054 653.148 312.243C653.039 312.433 652.874 312.554 652.652 312.606C652.434 312.659 652.225 312.629 652.027 312.515ZM653.246 318.201L650.949 322.18L649.933 321.593L653.752 314.98L654.733 315.546L654.137 316.58L654.223 316.629C654.572 316.383 654.963 316.249 655.396 316.228C655.831 316.203 656.298 316.335 656.798 316.624C657.246 316.882 657.584 317.2 657.814 317.578C658.046 317.953 658.148 318.379 658.121 318.857C658.095 319.332 657.92 319.851 657.595 320.413L655.169 324.616L654.153 324.029L656.539 319.896C656.839 319.376 656.938 318.894 656.835 318.448C656.735 317.999 656.449 317.639 655.978 317.367C655.654 317.18 655.323 317.083 654.987 317.076C654.653 317.071 654.335 317.161 654.033 317.346C653.731 317.532 653.468 317.817 653.246 318.201ZM659.004 330.136L664.254 321.043L665.235 321.61L664.629 322.66L664.749 322.73C664.89 322.658 665.078 322.572 665.313 322.47C665.552 322.367 665.837 322.317 666.168 322.321C666.504 322.323 666.887 322.448 667.317 322.697C667.874 323.019 668.285 323.441 668.549 323.965C668.813 324.489 668.916 325.075 668.86 325.723C668.803 326.372 668.574 327.043 668.173 327.738C667.769 328.438 667.299 328.976 666.764 329.353C666.231 329.726 665.672 329.932 665.088 329.969C664.505 330.004 663.938 329.862 663.387 329.544C662.962 329.299 662.663 329.032 662.489 328.744C662.316 328.453 662.213 328.177 662.18 327.917C662.148 327.654 662.13 327.44 662.124 327.277L662.038 327.227L660.02 330.723L659.004 330.136ZM663.344 324.926C663.055 325.426 662.874 325.909 662.8 326.375C662.728 326.838 662.77 327.259 662.927 327.637C663.086 328.011 663.369 328.317 663.776 328.552C664.201 328.797 664.62 328.89 665.034 328.83C665.452 328.769 665.843 328.589 666.207 328.29C666.575 327.99 666.895 327.605 667.167 327.134C667.435 326.669 667.606 326.208 667.677 325.752C667.754 325.295 667.712 324.875 667.551 324.491C667.394 324.106 667.1 323.789 666.67 323.54C666.257 323.302 665.849 323.206 665.446 323.253C665.046 323.297 664.666 323.465 664.307 323.755C663.95 324.042 663.629 324.433 663.344 324.926ZM673.931 323.691L668.84 332.509L667.824 331.922L672.915 323.104L673.931 323.691ZM672.558 334.862C672.139 334.62 671.804 334.321 671.553 333.966C671.305 333.608 671.167 333.221 671.14 332.803C671.115 332.383 671.226 331.958 671.475 331.527C671.694 331.148 671.946 330.884 672.231 330.735C672.518 330.583 672.825 330.511 673.152 330.521C673.48 330.53 673.814 330.589 674.153 330.697C674.497 330.803 674.834 330.925 675.165 331.062C675.596 331.243 675.944 331.392 676.209 331.51C676.478 331.628 676.689 331.686 676.842 331.687C676.998 331.688 677.123 331.608 677.218 331.444L677.237 331.41C677.483 330.985 677.557 330.588 677.46 330.218C677.367 329.85 677.086 329.531 676.618 329.261C676.133 328.981 675.691 328.867 675.293 328.921C674.895 328.974 674.57 329.089 674.319 329.265L673.554 328.364C673.958 328.062 674.368 327.881 674.784 327.823C675.205 327.764 675.612 327.788 676.005 327.897C676.402 328.004 676.768 328.153 677.101 328.345C677.313 328.468 677.542 328.635 677.788 328.845C678.038 329.055 678.248 329.312 678.416 329.616C678.588 329.922 678.67 330.281 678.661 330.693C678.653 331.105 678.497 331.574 678.194 332.1L675.678 336.457L674.662 335.87L675.179 334.975L675.128 334.945C674.976 335.048 674.772 335.136 674.517 335.207C674.262 335.277 673.968 335.293 673.634 335.254C673.301 335.214 672.942 335.084 672.558 334.862ZM673.24 334.038C673.642 334.27 674.026 334.387 674.392 334.388C674.762 334.391 675.089 334.308 675.374 334.14C675.662 333.973 675.885 333.752 676.044 333.476L676.581 332.546C676.508 332.573 676.386 332.566 676.215 332.524C676.048 332.482 675.861 332.421 675.653 332.344C675.45 332.265 675.253 332.185 675.062 332.105C674.875 332.024 674.723 331.96 674.606 331.911C674.322 331.793 674.043 331.706 673.768 331.651C673.498 331.595 673.249 331.602 673.021 331.673C672.797 331.743 672.61 331.907 672.461 332.165C672.257 332.518 672.234 332.861 672.391 333.192C672.552 333.523 672.835 333.805 673.24 334.038ZM680.14 339.216C679.52 338.858 679.071 338.404 678.792 337.853C678.513 337.301 678.402 336.699 678.457 336.046C678.513 335.393 678.731 334.737 679.112 334.076C679.5 333.405 679.965 332.883 680.509 332.512C681.057 332.139 681.637 331.937 682.249 331.904C682.866 331.869 683.473 332.025 684.07 332.369C684.535 332.638 684.905 332.966 685.178 333.353C685.452 333.741 685.618 334.159 685.678 334.606C685.737 335.054 685.676 335.501 685.495 335.947L684.479 335.361C684.575 335.015 684.557 334.648 684.424 334.262C684.296 333.874 684.008 333.551 683.56 333.292C683.164 333.063 682.757 332.966 682.339 333C681.926 333.034 681.529 333.189 681.147 333.466C680.769 333.741 680.436 334.129 680.148 334.629C679.853 335.139 679.677 335.631 679.619 336.102C679.563 336.576 679.623 337.003 679.798 337.383C679.975 337.765 680.265 338.072 680.667 338.304C680.931 338.456 681.197 338.549 681.466 338.581C681.734 338.613 681.992 338.587 682.241 338.501C682.49 338.415 682.715 338.269 682.918 338.065L683.934 338.651C683.651 339.008 683.306 339.278 682.898 339.46C682.496 339.641 682.056 339.716 681.58 339.686C681.108 339.655 680.628 339.498 680.14 339.216ZM686.999 343.176C686.361 342.808 685.893 342.35 685.593 341.802C685.298 341.253 685.172 340.652 685.216 340C685.264 339.347 685.484 338.681 685.875 338.004C686.266 337.326 686.734 336.801 687.279 336.426C687.829 336.051 688.41 335.847 689.022 335.814C689.639 335.78 690.246 335.935 690.843 336.279C691.187 336.478 691.494 336.732 691.764 337.041C692.033 337.35 692.231 337.713 692.358 338.13C692.486 338.545 692.51 339.01 692.43 339.526C692.35 340.043 692.132 340.61 691.775 341.227L691.527 341.657L686.429 338.714L686.936 337.836L691.001 340.182C691.216 339.809 691.334 339.433 691.353 339.054C691.376 338.677 691.3 338.325 691.125 337.998C690.953 337.673 690.683 337.404 690.316 337.192C689.911 336.959 689.503 336.857 689.091 336.887C688.684 336.916 688.31 337.044 687.968 337.272C687.626 337.499 687.35 337.795 687.139 338.16L686.801 338.745C686.513 339.245 686.355 339.718 686.326 340.165C686.303 340.61 686.393 341.013 686.599 341.373C686.806 341.73 687.115 342.027 687.526 342.264C687.793 342.418 688.055 342.52 688.314 342.569C688.576 342.618 688.831 342.611 689.076 342.55C689.324 342.487 689.557 342.365 689.776 342.185L690.598 343.027C690.303 343.3 689.96 343.493 689.57 343.605C689.182 343.713 688.768 343.735 688.328 343.668C687.889 343.599 687.446 343.435 686.999 343.176Z" fill="#C82C61"/>
</g>
<defs>
<clipPath id="clip0_7_18">
<rect width="772" height="435" fill="white"/>
</clipPath>
</defs>
</svg>
